ISO-10303-21;
HEADER;
FILE_DESCRIPTION (( 'STEP AP203' ),
    '1' );
FILE_NAME ('Оснастка для сварки 1.STEP',
    '2026-09-22T12:27:58',
    ( '' ),
    ( '' ),
    'SwSTEP 2.0',
    'SolidWorks 2024',
    '' );
FILE_SCHEMA (( 'CONFIG_CONTROL_DESIGN' ));
ENDSEC;

DATA;
#1 = CYLINDRICAL_SURFACE ( 'NONE', #478, 3.250000000000002665 ) ;
#2 = DIRECTION ( 'NONE',  ( 0.000000000000000000, 1.000000000000000000, 0.000000000000000000 ) ) ;
#3 = DIRECTION ( 'NONE',  ( 0.000000000000000000, 1.000000000000000000, 0.000000000000000000 ) ) ;
#4 = DIRECTION ( 'NONE',  ( -0.000000000000000000, 1.000000000000000000, -0.000000000000000000 ) ) ;
#5 = CARTESIAN_POINT ( 'NONE',  ( -150.0000000000000284, 7.599999999999999645, 60.00000000000006395 ) ) ;
#6 = AXIS2_PLACEMENT_3D ( 'NONE', #52, #174, #220 ) ;
#7 = CIRCLE ( 'NONE', #170, 3.250000000000009770 ) ;
#8 = PLANE ( 'NONE',  #240 ) ;
#9 = ORIENTED_EDGE ( 'NONE', *, *, #528, .F. ) ;
#10 = LINE ( 'NONE', #487, #446 ) ;
#11 = ADVANCED_FACE ( 'NONE', ( #468 ), #235, .F. ) ;
#12 = EDGE_CURVE ( 'NONE', #499, #262, #175, .T. ) ;
#13 = EDGE_CURVE ( 'NONE', #90, #148, #386, .T. ) ;
#14 = LINE ( 'NONE', #17, #394 ) ;
#15 = VECTOR ( 'NONE', #158, 1000.000000000000000 ) ;
#16 = CIRCLE ( 'NONE', #349, 3.250000000000002665 ) ;
#17 = CARTESIAN_POINT ( 'NONE',  ( 149.9999999999999716, 0.000000000000000000, 150.0000000000000000 ) ) ;
#18 = ORIENTED_EDGE ( 'NONE', *, *, #552, .F. ) ;
#19 = LINE ( 'NONE', #456, #521 ) ;
#20 = ORIENTED_EDGE ( 'NONE', *, *, #393, .F. ) ;
#21 = FACE_BOUND ( 'NONE', #425, .T. ) ;
#22 = CC_DESIGN_APPROVAL ( #418, ( #229 ) ) ;
#23 = ORIENTED_EDGE ( 'NONE', *, *, #303, .T. ) ;
#24 =( NAMED_UNIT ( * ) SI_UNIT ( $, .STERADIAN. ) SOLID_ANGLE_UNIT ( ) );
#25 = ORIENTED_EDGE ( 'NONE', *, *, #12, .T. ) ;
#26 = APPROVAL_ROLE ( '' ) ;
#27 = EDGE_LOOP ( 'NONE', ( #173, #18, #361, #517 ) ) ;
#28 = CARTESIAN_POINT ( 'NONE',  ( 0.000000000000000000, 8.000000000000000000, -56.74999999999999289 ) ) ;
#29 = CARTESIAN_POINT ( 'NONE',  ( 0.000000000000000000, 0.000000000000000000, 0.000000000000000000 ) ) ;
#30 = CIRCLE ( 'NONE', #493, 3.250000000000002665 ) ;
#31 = DIRECTION ( 'NONE',  ( 0.000000000000000000, -1.000000000000000000, 0.000000000000000000 ) ) ;
#32 = COORDINATED_UNIVERSAL_TIME_OFFSET ( 3, 0, .AHEAD. ) ;
#33 = AXIS2_PLACEMENT_3D ( 'NONE', #134, #222, #184 ) ;
#34 = APPROVAL_DATE_TIME ( #430, #418 ) ;
#35 = CARTESIAN_POINT ( 'NONE',  ( -150.0000000000000284, 8.000000000000000000, 150.0000000000000568 ) ) ;
#36 = CC_DESIGN_PERSON_AND_ORGANIZATION_ASSIGNMENT ( #196, #320, ( #556 ) ) ;
#37 = CARTESIAN_POINT ( 'NONE',  ( 0.000000000000000000, 8.000000000000000000, -60.00000000000000000 ) ) ;
#38 = PERSON_AND_ORGANIZATION ( #379, #125 ) ;
#39 = VERTEX_POINT ( 'NONE', #481 ) ;
#40 = DIRECTION ( 'NONE',  ( 1.000000000000000000, 0.000000000000000000, 0.000000000000000000 ) ) ;
#41 = CARTESIAN_POINT ( 'NONE',  ( 0.000000000000000000, 8.000000000000000000, -60.00000000000000000 ) ) ;
#42 = ORIENTED_EDGE ( 'NONE', *, *, #373, .F. ) ;
#43 = CARTESIAN_POINT ( 'NONE',  ( 76.87263897103090926, -192.0000000000000000, -60.00000000000000000 ) ) ;
#44 = APPLICATION_CONTEXT ( 'configuration controlled 3d designs of mechanical parts and assemblies' ) ;
#45 = CARTESIAN_POINT ( 'NONE',  ( 149.9999999999999716, 8.000000000000000000, 150.0000000000000000 ) ) ;
#46 = ORIENTED_EDGE ( 'NONE', *, *, #552, .T. ) ;
#47 = DIRECTION ( 'NONE',  ( 1.000000000000000000, 0.000000000000000000, 0.000000000000000000 ) ) ;
#48 = VECTOR ( 'NONE', #132, 1000.000000000000000 ) ;
#49 = FACE_OUTER_BOUND ( 'NONE', #534, .T. ) ;
#50 = EDGE_CURVE ( 'NONE', #99, #319, #164, .T. ) ;
#51 = DIRECTION ( 'NONE',  ( 0.000000000000000000, 0.000000000000000000, 1.000000000000000000 ) ) ;
#52 = CARTESIAN_POINT ( 'NONE',  ( 149.9999999999999716, 8.000000000000000000, 150.0000000000000000 ) ) ;
#53 = ORIENTED_EDGE ( 'NONE', *, *, #145, .F. ) ;
#54 = ORIENTED_EDGE ( 'NONE', *, *, #303, .F. ) ;
#55 = VECTOR ( 'NONE', #253, 1000.000000000000000 ) ;
#56 = AXIS2_PLACEMENT_3D ( 'NONE', #29, #237, #375 ) ;
#57 = ORIENTED_EDGE ( 'NONE', *, *, #364, .F. ) ;
#58 = EDGE_LOOP ( 'NONE', ( #471, #539 ) ) ;
#59 = FACE_OUTER_BOUND ( 'NONE', #185, .T. ) ;
#60 = CARTESIAN_POINT ( 'NONE',  ( 3.980102097228896752E-16, 8.000000000000000000, -63.25000000000000000 ) ) ;
#61 = ORIENTED_EDGE ( 'NONE', *, *, #497, .F. ) ;
#62 = FACE_BOUND ( 'NONE', #78, .T. ) ;
#63 = VECTOR ( 'NONE', #4, 1000.000000000000000 ) ;
#64 = EDGE_CURVE ( 'NONE', #99, #90, #244, .T. ) ;
#65 = LINE ( 'NONE', #491, #479 ) ;
#66 = CC_DESIGN_PERSON_AND_ORGANIZATION_ASSIGNMENT ( #544, #328, ( #530 ) ) ;
#67 = ORIENTED_EDGE ( 'NONE', *, *, #512, .T. ) ;
#68 = CARTESIAN_POINT ( 'NONE',  ( 76.87263897103090926, -192.0000000000000000, -63.25000000000000000 ) ) ;
#69 = COORDINATED_UNIVERSAL_TIME_OFFSET ( 3, 0, .AHEAD. ) ;
#70 = VERTEX_POINT ( 'NONE', #118 ) ;
#71 = DIRECTION ( 'NONE',  ( -0.000000000000000000, 1.000000000000000000, -0.000000000000000000 ) ) ;
#72 = DATE_TIME_ROLE ( 'classification_date' ) ;
#73 = CC_DESIGN_DATE_AND_TIME_ASSIGNMENT ( #111, #414, ( #530 ) ) ;
#74 = UNCERTAINTY_MEASURE_WITH_UNIT (LENGTH_MEASURE( 1.000000000000000082E-05 ), #450, 'distance_accuracy_value', 'NONE');
#75 = VECTOR ( 'NONE', #120, 1000.000000000000000 ) ;
#76 = VECTOR ( 'NONE', #352, 1000.000000000000000 ) ;
#77 = CARTESIAN_POINT ( 'NONE',  ( 76.87263897103090926, 8.000000000000000000, -63.25000000000000000 ) ) ;
#78 = EDGE_LOOP ( 'NONE', ( #492, #286 ) ) ;
#79 = CARTESIAN_POINT ( 'NONE',  ( 0.000000000000000000, -192.0000000000000000, -60.00000000000000000 ) ) ;
#80 = CARTESIAN_POINT ( 'NONE',  ( -150.0000000000000284, 8.000000000000000000, 150.0000000000000568 ) ) ;
#81 = ORIENTED_EDGE ( 'NONE', *, *, #511, .F. ) ;
#82 = FACE_OUTER_BOUND ( 'NONE', #224, .T. ) ;
#83 = VECTOR ( 'NONE', #71, 1000.000000000000000 ) ;
#84 = CARTESIAN_POINT ( 'NONE',  ( -76.87263897103090926, 0.000000000000000000, -60.00000000000000000 ) ) ;
#85 = LINE ( 'NONE', #341, #63 ) ;
#86 = LINE ( 'NONE', #45, #116 ) ;
#87 = CARTESIAN_POINT ( 'NONE',  ( 0.000000000000000000, 0.000000000000000000, -60.00000000000000000 ) ) ;
#88 = EDGE_CURVE ( 'NONE', #39, #243, #85, .T. ) ;
#89 = ADVANCED_FACE ( 'NONE', ( #162 ), #1, .F. ) ;
#90 = VERTEX_POINT ( 'NONE', #280 ) ;
#91 = APPROVAL_PERSON_ORGANIZATION ( #278, #204, #26 ) ;
#92 = CARTESIAN_POINT ( 'NONE',  ( -150.0000000000000284, 7.599999999999999645, 60.00000000000006395 ) ) ;
#93 = CARTESIAN_POINT ( 'NONE',  ( -150.0000000000000284, 8.000000000000000000, 60.00000000000006395 ) ) ;
#94 = ORIENTED_EDGE ( 'NONE', *, *, #260, .F. ) ;
#95 = DIRECTION ( 'NONE',  ( -0.000000000000000000, -0.000000000000000000, 1.000000000000000000 ) ) ;
#96 = VERTEX_POINT ( 'NONE', #383 ) ;
#97 = CYLINDRICAL_SURFACE ( 'NONE', #495, 3.250000000000009770 ) ;
#98 = CIRCLE ( 'NONE', #360, 3.250000000000009770 ) ;
#99 = VERTEX_POINT ( 'NONE', #250 ) ;
#100 = DIRECTION ( 'NONE',  ( 0.000000000000000000, 1.000000000000000000, 0.000000000000000000 ) ) ;
#101 = EDGE_LOOP ( 'NONE', ( #46, #316 ) ) ;
#102 = CARTESIAN_POINT ( 'NONE',  ( -76.87263897103090926, -192.0000000000000000, -63.25000000000000000 ) ) ;
#103 = VERTEX_POINT ( 'NONE', #336 ) ;
#104 = EDGE_CURVE ( 'NONE', #243, #536, #16, .T. ) ;
#105 = ADVANCED_FACE ( 'NONE', ( #515 ), #432, .F. ) ;
#106 = CC_DESIGN_DATE_AND_TIME_ASSIGNMENT ( #333, #72, ( #229 ) ) ;
#107 = FACE_OUTER_BOUND ( 'NONE', #270, .T. ) ;
#108 = ORIENTED_EDGE ( 'NONE', *, *, #511, .T. ) ;
#109 = AXIS2_PLACEMENT_3D ( 'NONE', #439, #40, #388 ) ;
#110 = ORIENTED_EDGE ( 'NONE', *, *, #145, .T. ) ;
#111 = DATE_AND_TIME ( #367, #156 ) ;
#112 = CC_DESIGN_PERSON_AND_ORGANIZATION_ASSIGNMENT ( #279, #470, ( #556 ) ) ;
#113 = CARTESIAN_POINT ( 'NONE',  ( -76.87263897103090926, 8.000000000000000000, -60.00000000000000000 ) ) ;
#114 = DIRECTION ( 'NONE',  ( 0.000000000000000000, 1.000000000000000000, 0.000000000000000000 ) ) ;
#115 = ORIENTED_EDGE ( 'NONE', *, *, #226, .F. ) ;
#116 = VECTOR ( 'NONE', #486, 1000.000000000000000 ) ;
#117 = ORIENTED_EDGE ( 'NONE', *, *, #50, .F. ) ;
#118 = CARTESIAN_POINT ( 'NONE',  ( -60.00000000000002842, 8.000000000000000000, 60.00000000000006395 ) ) ;
#119 = APPROVAL ( #149, 'UNSPECIFIED' ) ;
#120 = DIRECTION ( 'NONE',  ( -0.000000000000000000, -1.000000000000000000, -0.000000000000000000 ) ) ;
#121 = ORIENTED_EDGE ( 'NONE', *, *, #260, .T. ) ;
#122 = DIRECTION ( 'NONE',  ( 0.000000000000000000, 1.000000000000000000, 0.000000000000000000 ) ) ;
#123 = VECTOR ( 'NONE', #396, 1000.000000000000000 ) ;
#124 = DIRECTION ( 'NONE',  ( -1.000000000000000000, 0.000000000000000000, -0.000000000000000000 ) ) ;
#125 = ORGANIZATION ( 'UNSPECIFIED', 'UNSPECIFIED', '' ) ;
#126 = ORIENTED_EDGE ( 'NONE', *, *, #186, .F. ) ;
#127 = LINE ( 'NONE', #347, #48 ) ;
#128 = CC_DESIGN_PERSON_AND_ORGANIZATION_ASSIGNMENT ( #421, #323, ( #506 ) ) ;
#129 = ORIENTED_EDGE ( 'NONE', *, *, #64, .F. ) ;
#130 = DIRECTION ( 'NONE',  ( -0.000000000000000000, 1.000000000000000000, -0.000000000000000000 ) ) ;
#131 = ORIENTED_EDGE ( 'NONE', *, *, #13, .T. ) ;
#132 = DIRECTION ( 'NONE',  ( -0.000000000000000000, 1.000000000000000000, -0.000000000000000000 ) ) ;
#133 = EDGE_LOOP ( 'NONE', ( #403, #228, #25, #366 ) ) ;
#134 = CARTESIAN_POINT ( 'NONE',  ( 0.000000000000000000, 0.000000000000000000, 0.000000000000000000 ) ) ;
#135 = VERTEX_POINT ( 'NONE', #166 ) ;
#136 = DIRECTION ( 'NONE',  ( -0.000000000000000000, 1.000000000000000000, -0.000000000000000000 ) ) ;
#137 = VERTEX_POINT ( 'NONE', #377 ) ;
#138 = CARTESIAN_POINT ( 'NONE',  ( -76.87263897103090926, -192.0000000000000000, -60.00000000000000000 ) ) ;
#139 = CIRCLE ( 'NONE', #311, 3.250000000000002665 ) ;
#140 = ORIENTED_EDGE ( 'NONE', *, *, #64, .T. ) ;
#141 = VECTOR ( 'NONE', #136, 1000.000000000000000 ) ;
#142 = ORIENTED_EDGE ( 'NONE', *, *, #13, .F. ) ;
#143 = DIRECTION ( 'NONE',  ( -1.000000000000000000, 0.000000000000000000, 1.850371707708594316E-16 ) ) ;
#144 = CARTESIAN_POINT ( 'NONE',  ( -150.0000000000000284, 7.599999999999999645, 150.0000000000000568 ) ) ;
#145 = EDGE_CURVE ( 'NONE', #357, #405, #522, .T. ) ;
#146 = ORIENTED_EDGE ( 'NONE', *, *, #488, .F. ) ;
#147 = LINE ( 'NONE', #500, #141 ) ;
#148 = VERTEX_POINT ( 'NONE', #155 ) ;
#149 = APPROVAL_STATUS ( 'not_yet_approved' ) ;
#150 = VERTEX_POINT ( 'NONE', #476 ) ;
#151 = AXIS2_PLACEMENT_3D ( 'NONE', #152, #239, #283 ) ;
#152 = CARTESIAN_POINT ( 'NONE',  ( 76.87263897103090926, 8.000000000000000000, -60.00000000000000000 ) ) ;
#153 = DIRECTION ( 'NONE',  ( 0.000000000000000000, 0.000000000000000000, 1.000000000000000000 ) ) ;
#154 = CARTESIAN_POINT ( 'NONE',  ( 0.000000000000000000, 0.000000000000000000, -60.00000000000000000 ) ) ;
#155 = CARTESIAN_POINT ( 'NONE',  ( -150.0000000000000284, 0.000000000000000000, 150.0000000000000568 ) ) ;
#156 = LOCAL_TIME ( 15, 27, 58.00000000000000000, #505 ) ;
#157 = DIRECTION ( 'NONE',  ( 0.000000000000000000, -0.000000000000000000, 1.000000000000000000 ) ) ;
#158 = DIRECTION ( 'NONE',  ( -0.000000000000000000, -0.000000000000000000, 1.000000000000000000 ) ) ;
#159 = LINE ( 'NONE', #248, #274 ) ;
#160 = ADVANCED_FACE ( 'NONE', ( #82 ), #209, .F. ) ;
#161 = ADVANCED_FACE ( 'NONE', ( #59, #409, #189, #62 ), #362, .T. ) ;
#162 = FACE_OUTER_BOUND ( 'NONE', #225, .T. ) ;
#163 = CARTESIAN_POINT ( 'NONE',  ( -76.87263897103090926, 0.000000000000000000, -56.74999999999998579 ) ) ;
#164 = LINE ( 'NONE', #80, #55 ) ;
#165 = CARTESIAN_POINT ( 'NONE',  ( -60.00000000000002842, 7.599999999999999645, 60.00000000000006395 ) ) ;
#166 = CARTESIAN_POINT ( 'NONE',  ( 149.9999999999999716, 0.000000000000000000, -150.0000000000000000 ) ) ;
#167 = AXIS2_PLACEMENT_3D ( 'NONE', #43, #130, #210 ) ;
#168 = EDGE_CURVE ( 'NONE', #514, #176, #251, .T. ) ;
#169 = CARTESIAN_POINT ( 'NONE',  ( -150.0000000000000284, 7.599999999999999645, 150.0000000000000568 ) ) ;
#170 = AXIS2_PLACEMENT_3D ( 'NONE', #190, #496, #232 ) ;
#171 = ORIENTED_EDGE ( 'NONE', *, *, #186, .T. ) ;
#172 = CARTESIAN_POINT ( 'NONE',  ( 76.87263897103090926, 8.000000000000000000, -60.00000000000000000 ) ) ;
#173 = ORIENTED_EDGE ( 'NONE', *, *, #203, .F. ) ;
#174 = DIRECTION ( 'NONE',  ( -1.850371707708594316E-16, 0.000000000000000000, -1.000000000000000000 ) ) ;
#175 = CIRCLE ( 'NONE', #299, 3.250000000000009770 ) ;
#176 = VERTEX_POINT ( 'NONE', #77 ) ;
#177 = AXIS2_PLACEMENT_3D ( 'NONE', #419, #547, #153 ) ;
#178 = CARTESIAN_POINT ( 'NONE',  ( 149.9999999999999716, 8.000000000000000000, -150.0000000000000000 ) ) ;
#179 = AXIS2_PLACEMENT_3D ( 'NONE', #35, #510, #458 ) ;
#180 = VERTEX_POINT ( 'NONE', #550 ) ;
#181 = CARTESIAN_POINT ( 'NONE',  ( 76.87263897103090926, 0.000000000000000000, -60.00000000000000000 ) ) ;
#182 = ORIENTED_EDGE ( 'NONE', *, *, #50, .T. ) ;
#183 = CYLINDRICAL_SURFACE ( 'NONE', #207, 3.250000000000009770 ) ;
#184 = DIRECTION ( 'NONE',  ( 0.000000000000000000, -0.000000000000000000, 1.000000000000000000 ) ) ;
#185 = EDGE_LOOP ( 'NONE', ( #9, #57, #110, #108, #288, #182 ) ) ;
#186 = EDGE_CURVE ( 'NONE', #96, #357, #325, .T. ) ;
#187 = FACE_BOUND ( 'NONE', #58, .T. ) ;
#188 = ORIENTED_EDGE ( 'NONE', *, *, #301, .T. ) ;
#189 = FACE_BOUND ( 'NONE', #332, .T. ) ;
#190 = CARTESIAN_POINT ( 'NONE',  ( -76.87263897103090926, 8.000000000000000000, -60.00000000000000000 ) ) ;
#191 = ORIENTED_EDGE ( 'NONE', *, *, #488, .T. ) ;
#192 = CALENDAR_DATE ( 2026, 22, 9 ) ;
#193 = ORIENTED_EDGE ( 'NONE', *, *, #512, .F. ) ;
#194 = PLANE ( 'NONE',  #294 ) ;
#195 = APPROVAL_ROLE ( '' ) ;
#196 = PERSON_AND_ORGANIZATION ( #379, #125 ) ;
#197 = AXIS2_PLACEMENT_3D ( 'NONE', #296, #448, #482 ) ;
#198 = ORIENTED_EDGE ( 'NONE', *, *, #392, .F. ) ;
#199 = APPROVAL_PERSON_ORGANIZATION ( #417, #119, #195 ) ;
#200 = ORIENTED_EDGE ( 'NONE', *, *, #392, .T. ) ;
#201 = ADVANCED_BREP_SHAPE_REPRESENTATION ( '\X2\041e0441043d043004410442043a0430\X0\ \X2\0434043b044f\X0\ \X2\0441043204300440043a0438\X0\ 1', ( #378, #56 ), #295 ) ;
#202 = EDGE_CURVE ( 'NONE', #150, #457, #504, .T. ) ;
#203 = EDGE_CURVE ( 'NONE', #103, #176, #427, .T. ) ;
#204 = APPROVAL ( #469, 'UNSPECIFIED' ) ;
#205 = APPROVAL_STATUS ( 'not_yet_approved' ) ;
#206 = CC_DESIGN_APPROVAL ( #119, ( #530 ) ) ;
#207 = AXIS2_PLACEMENT_3D ( 'NONE', #354, #494, #268 ) ;
#208 = DATE_AND_TIME ( #192, #356 ) ;
#209 = PLANE ( 'NONE',  #179 ) ;
#210 = DIRECTION ( 'NONE',  ( 0.000000000000000000, 0.000000000000000000, 1.000000000000000000 ) ) ;
#211 = DIRECTION ( 'NONE',  ( 0.000000000000000000, 0.000000000000000000, 1.000000000000000000 ) ) ;
#212 = DIRECTION ( 'NONE',  ( 0.000000000000000000, 0.000000000000000000, 1.000000000000000000 ) ) ;
#213 = LOCAL_TIME ( 15, 27, 58.00000000000000000, #69 ) ;
#214 = ORIENTED_EDGE ( 'NONE', *, *, #226, .T. ) ;
#215 = VECTOR ( 'NONE', #477, 1000.000000000000000 ) ;
#216 = CYLINDRICAL_SURFACE ( 'NONE', #167, 3.250000000000009770 ) ;
#217 = PLANE ( 'NONE',  #197 ) ;
#218 = ORIENTED_EDGE ( 'NONE', *, *, #460, .T. ) ;
#219 = LINE ( 'NONE', #398, #75 ) ;
#220 = DIRECTION ( 'NONE',  ( -1.000000000000000000, 0.000000000000000000, 1.850371707708594316E-16 ) ) ;
#221 = APPLICATION_CONTEXT ( 'configuration controlled 3d designs of mechanical parts and assemblies' ) ;
#222 = DIRECTION ( 'NONE',  ( 0.000000000000000000, 1.000000000000000000, 0.000000000000000000 ) ) ;
#223 = VECTOR ( 'NONE', #507, 1000.000000000000000 ) ;
#224 = EDGE_LOOP ( 'NONE', ( #146, #382, #117, #140, #131, #532 ) ) ;
#225 = EDGE_LOOP ( 'NONE', ( #501, #397, #267, #408 ) ) ;
#226 = EDGE_CURVE ( 'NONE', #313, #70, #548, .T. ) ;
#227 = DIRECTION ( 'NONE',  ( 0.000000000000000000, 0.000000000000000000, 1.000000000000000000 ) ) ;
#228 = ORIENTED_EDGE ( 'NONE', *, *, #518, .T. ) ;
#229 = SECURITY_CLASSIFICATION ( '', '', #247 ) ;
#230 = FACE_OUTER_BOUND ( 'NONE', #293, .T. ) ;
#231 = EDGE_LOOP ( 'NONE', ( #358, #61, #81, #475 ) ) ;
#232 = DIRECTION ( 'NONE',  ( 0.000000000000000000, 0.000000000000000000, 1.000000000000000000 ) ) ;
#233 = ORIENTED_EDGE ( 'NONE', *, *, #364, .T. ) ;
#234 = DATE_AND_TIME ( #549, #213 ) ;
#235 = CYLINDRICAL_SURFACE ( 'NONE', #177, 3.250000000000009770 ) ;
#236 = DIRECTION ( 'NONE',  ( -0.000000000000000000, 1.000000000000000000, -0.000000000000000000 ) ) ;
#237 = DIRECTION ( 'NONE',  ( 0.000000000000000000, 0.000000000000000000, 1.000000000000000000 ) ) ;
#238 = PERSON_AND_ORGANIZATION_ROLE ( 'classification_officer' ) ;
#239 = DIRECTION ( 'NONE',  ( 0.000000000000000000, 1.000000000000000000, 0.000000000000000000 ) ) ;
#240 = AXIS2_PLACEMENT_3D ( 'NONE', #399, #524, #51 ) ;
#241 = VERTEX_POINT ( 'NONE', #416 ) ;
#242 = CARTESIAN_POINT ( 'NONE',  ( -150.0000000000000284, 0.000000000000000000, 150.0000000000000568 ) ) ;
#243 = VERTEX_POINT ( 'NONE', #28 ) ;
#244 = LINE ( 'NONE', #429, #321 ) ;
#245 = ADVANCED_FACE ( 'NONE', ( #420 ), #194, .F. ) ;
#246 = EDGE_CURVE ( 'NONE', #39, #415, #372, .T. ) ;
#247 = SECURITY_CLASSIFICATION_LEVEL ( 'unclassified' ) ;
#248 = CARTESIAN_POINT ( 'NONE',  ( 76.87263897103090926, -192.0000000000000000, -56.74999999999998579 ) ) ;
#249 = ORIENTED_EDGE ( 'NONE', *, *, #202, .T. ) ;
#250 = CARTESIAN_POINT ( 'NONE',  ( -150.0000000000000284, 8.000000000000000000, -149.9999999999999432 ) ) ;
#251 = CIRCLE ( 'NONE', #151, 3.250000000000009770 ) ;
#252 = DIRECTION ( 'NONE',  ( 0.000000000000000000, 1.000000000000000000, 0.000000000000000000 ) ) ;
#253 = DIRECTION ( 'NONE',  ( -0.000000000000000000, -0.000000000000000000, 1.000000000000000000 ) ) ;
#254 = LINE ( 'NONE', #5, #537 ) ;
#255 = ORIENTED_EDGE ( 'NONE', *, *, #461, .F. ) ;
#256 = PLANE ( 'NONE',  #391 ) ;
#257 = LOCAL_TIME ( 15, 27, 58.00000000000000000, #384 ) ;
#258 = CARTESIAN_POINT ( 'NONE',  ( -60.00000000000002842, 8.000000000000000000, 150.0000000000000568 ) ) ;
#259 = ADVANCED_FACE ( 'NONE', ( #462 ), #183, .F. ) ;
#260 = EDGE_CURVE ( 'NONE', #135, #90, #406, .T. ) ;
#261 = LINE ( 'NONE', #291, #215 ) ;
#262 = VERTEX_POINT ( 'NONE', #314 ) ;
#263 = PLANE ( 'NONE',  #33 ) ;
#264 = ORIENTED_EDGE ( 'NONE', *, *, #474, .T. ) ;
#265 = DIRECTION ( 'NONE',  ( 0.000000000000000000, 0.000000000000000000, 1.000000000000000000 ) ) ;
#266 = VECTOR ( 'NONE', #444, 1000.000000000000000 ) ;
#267 = ORIENTED_EDGE ( 'NONE', *, *, #88, .T. ) ;
#268 = DIRECTION ( 'NONE',  ( 0.000000000000000000, 0.000000000000000000, 1.000000000000000000 ) ) ;
#269 = LINE ( 'NONE', #271, #76 ) ;
#270 = EDGE_LOOP ( 'NONE', ( #20, #264, #466, #272 ) ) ;
#271 = CARTESIAN_POINT ( 'NONE',  ( 149.9999999999999716, 8.000000000000000000, 150.0000000000000000 ) ) ;
#272 = ORIENTED_EDGE ( 'NONE', *, *, #88, .F. ) ;
#273 = DIRECTION ( 'NONE',  ( -1.000000000000000000, -0.000000000000000000, -0.000000000000000000 ) ) ;
#274 = VECTOR ( 'NONE', #292, 1000.000000000000000 ) ;
#275 = ORIENTED_EDGE ( 'NONE', *, *, #12, .F. ) ;
#276 = APPLICATION_PROTOCOL_DEFINITION ( 'international standard', 'config_control_design', 1994, #221 ) ;
#277 = CARTESIAN_POINT ( 'NONE',  ( -60.00000000000002842, 7.599999999999999645, 60.00000000000006395 ) ) ;
#278 = PERSON_AND_ORGANIZATION ( #379, #125 ) ;
#279 = PERSON_AND_ORGANIZATION ( #379, #125 ) ;
#280 = CARTESIAN_POINT ( 'NONE',  ( -150.0000000000000284, 0.000000000000000000, -149.9999999999999432 ) ) ;
#281 = CC_DESIGN_APPROVAL ( #204, ( #556 ) ) ;
#282 = EDGE_CURVE ( 'NONE', #413, #514, #159, .T. ) ;
#283 = DIRECTION ( 'NONE',  ( 0.000000000000000000, 0.000000000000000000, 1.000000000000000000 ) ) ;
#284 = VECTOR ( 'NONE', #47, 1000.000000000000000 ) ;
#285 = EDGE_CURVE ( 'NONE', #536, #243, #139, .T. ) ;
#286 = ORIENTED_EDGE ( 'NONE', *, *, #285, .F. ) ;
#287 = APPROVAL_ROLE ( '' ) ;
#288 = ORIENTED_EDGE ( 'NONE', *, *, #443, .T. ) ;
#289 = DESIGN_CONTEXT ( 'detailed design', #44, 'design' ) ;
#290 = CARTESIAN_POINT ( 'NONE',  ( 149.9999999999999716, 8.000000000000000000, 150.0000000000000000 ) ) ;
#291 = CARTESIAN_POINT ( 'NONE',  ( 149.9999999999999716, 0.000000000000000000, 150.0000000000000000 ) ) ;
#292 = DIRECTION ( 'NONE',  ( -0.000000000000000000, 1.000000000000000000, -0.000000000000000000 ) ) ;
#293 = EDGE_LOOP ( 'NONE', ( #142, #94, #353, #193 ) ) ;
#294 = AXIS2_PLACEMENT_3D ( 'NONE', #370, #31, #374 ) ;
#295 =( GEOMETRIC_REPRESENTATION_CONTEXT ( 3 ) GLOBAL_UNCERTAINTY_ASSIGNED_CONTEXT ( ( #74 ) ) GLOBAL_UNIT_ASSIGNED_CONTEXT ( ( #450, #310, #24 ) ) REPRESENTATION_CONTEXT ( 'NONE', 'WORKASPACE' ) );
#296 = CARTESIAN_POINT ( 'NONE',  ( 149.9999999999999716, 8.000000000000000000, -150.0000000000000000 ) ) ;
#297 = CARTESIAN_POINT ( 'NONE',  ( -150.0000000000000284, 7.599999999999999645, 60.00000000000006395 ) ) ;
#298 = FACE_OUTER_BOUND ( 'NONE', #543, .T. ) ;
#299 = AXIS2_PLACEMENT_3D ( 'NONE', #113, #508, #558 ) ;
#300 = APPROVAL_PERSON_ORGANIZATION ( #324, #418, #287 ) ;
#301 = EDGE_CURVE ( 'NONE', #96, #313, #431, .T. ) ;
#302 = ADVANCED_FACE ( 'NONE', ( #49 ), #217, .F. ) ;
#303 = EDGE_CURVE ( 'NONE', #176, #514, #98, .T. ) ;
#304 = CARTESIAN_POINT ( 'NONE',  ( 3.980102097228896752E-16, 0.000000000000000000, -63.25000000000000000 ) ) ;
#305 = CARTESIAN_POINT ( 'NONE',  ( 76.87263897103090926, 0.000000000000000000, -60.00000000000000000 ) ) ;
#306 = EDGE_LOOP ( 'NONE', ( #233, #115, #485, #171 ) ) ;
#307 = LINE ( 'NONE', #102, #401 ) ;
#308 = CC_DESIGN_PERSON_AND_ORGANIZATION_ASSIGNMENT ( #38, #238, ( #229 ) ) ;
#309 = ORIENTED_EDGE ( 'NONE', *, *, #497, .T. ) ;
#310 =( NAMED_UNIT ( * ) PLANE_ANGLE_UNIT ( ) SI_UNIT ( $, .RADIAN. ) );
#311 = AXIS2_PLACEMENT_3D ( 'NONE', #41, #3, #334 ) ;
#312 = VECTOR ( 'NONE', #95, 1000.000000000000000 ) ;
#313 = VERTEX_POINT ( 'NONE', #165 ) ;
#314 = CARTESIAN_POINT ( 'NONE',  ( -76.87263897103090926, 8.000000000000000000, -56.74999999999998579 ) ) ;
#315 = DIRECTION ( 'NONE',  ( -0.000000000000000000, 1.000000000000000000, -0.000000000000000000 ) ) ;
#316 = ORIENTED_EDGE ( 'NONE', *, *, #461, .T. ) ;
#317 = CARTESIAN_POINT ( 'NONE',  ( 0.000000000000000000, 8.000000000000000000, 0.000000000000000000 ) ) ;
#318 = CARTESIAN_POINT ( 'NONE',  ( 76.87263897103090926, 8.000000000000000000, -56.74999999999998579 ) ) ;
#319 = VERTEX_POINT ( 'NONE', #93 ) ;
#320 = PERSON_AND_ORGANIZATION_ROLE ( 'creator' ) ;
#321 = VECTOR ( 'NONE', #473, 1000.000000000000000 ) ;
#322 = ORIENTED_EDGE ( 'NONE', *, *, #483, .T. ) ;
#323 = PERSON_AND_ORGANIZATION_ROLE ( 'design_owner' ) ;
#324 = PERSON_AND_ORGANIZATION ( #379, #125 ) ;
#325 = LINE ( 'NONE', #423, #223 ) ;
#326 = ORIENTED_EDGE ( 'NONE', *, *, #528, .T. ) ;
#327 = DIRECTION ( 'NONE',  ( 0.000000000000000000, 1.000000000000000000, 0.000000000000000000 ) ) ;
#328 = PERSON_AND_ORGANIZATION_ROLE ( 'creator' ) ;
#329 = ADVANCED_FACE ( 'NONE', ( #519 ), #216, .F. ) ;
#330 = SHAPE_DEFINITION_REPRESENTATION ( #369, #201 ) ;
#331 = CARTESIAN_POINT ( 'NONE',  ( -76.87263897103090926, 0.000000000000000000, -60.00000000000000000 ) ) ;
#332 = EDGE_LOOP ( 'NONE', ( #480, #275 ) ) ;
#333 = DATE_AND_TIME ( #380, #257 ) ;
#334 = DIRECTION ( 'NONE',  ( 0.000000000000000000, 0.000000000000000000, 1.000000000000000000 ) ) ;
#335 = DIRECTION ( 'NONE',  ( 0.000000000000000000, 0.000000000000000000, 1.000000000000000000 ) ) ;
#336 = CARTESIAN_POINT ( 'NONE',  ( 76.87263897103090926, 0.000000000000000000, -63.25000000000000000 ) ) ;
#337 = DIRECTION ( 'NONE',  ( -1.000000000000000000, 0.000000000000000000, 1.850371707708594316E-16 ) ) ;
#338 = DIRECTION ( 'NONE',  ( -0.000000000000000000, 1.000000000000000000, -0.000000000000000000 ) ) ;
#339 = LINE ( 'NONE', #169, #284 ) ;
#340 = AXIS2_PLACEMENT_3D ( 'NONE', #181, #402, #538 ) ;
#341 = CARTESIAN_POINT ( 'NONE',  ( 0.000000000000000000, -192.0000000000000000, -56.74999999999999289 ) ) ;
#342 = AXIS2_PLACEMENT_3D ( 'NONE', #305, #100, #489 ) ;
#343 = DIRECTION ( 'NONE',  ( 0.000000000000000000, 0.000000000000000000, 1.000000000000000000 ) ) ;
#344 = FACE_OUTER_BOUND ( 'NONE', #525, .T. ) ;
#345 = ADVANCED_FACE ( 'NONE', ( #298 ), #484, .F. ) ;
#346 = ADVANCED_FACE ( 'NONE', ( #344 ), #256, .F. ) ;
#347 = CARTESIAN_POINT ( 'NONE',  ( -76.87263897103090926, -192.0000000000000000, -56.74999999999998579 ) ) ;
#348 = ORIENTED_EDGE ( 'NONE', *, *, #460, .F. ) ;
#349 = AXIS2_PLACEMENT_3D ( 'NONE', #37, #122, #211 ) ;
#350 = FACE_OUTER_BOUND ( 'NONE', #133, .T. ) ;
#351 = ORIENTED_EDGE ( 'NONE', *, *, #441, .T. ) ;
#352 = DIRECTION ( 'NONE',  ( 0.000000000000000000, 0.000000000000000000, -1.000000000000000000 ) ) ;
#353 = ORIENTED_EDGE ( 'NONE', *, *, #459, .F. ) ;
#354 = CARTESIAN_POINT ( 'NONE',  ( 76.87263897103090926, -192.0000000000000000, -60.00000000000000000 ) ) ;
#355 = DIRECTION ( 'NONE',  ( -0.000000000000000000, 1.000000000000000000, -0.000000000000000000 ) ) ;
#356 = LOCAL_TIME ( 15, 27, 58.00000000000000000, #32 ) ;
#357 = VERTEX_POINT ( 'NONE', #395 ) ;
#358 = ORIENTED_EDGE ( 'NONE', *, *, #459, .T. ) ;
#359 = CARTESIAN_POINT ( 'NONE',  ( 149.9999999999999716, 0.000000000000000000, -150.0000000000000000 ) ) ;
#360 = AXIS2_PLACEMENT_3D ( 'NONE', #172, #2, #212 ) ;
#361 = ORIENTED_EDGE ( 'NONE', *, *, #282, .T. ) ;
#362 = PLANE ( 'NONE',  #529 ) ;
#363 = DIRECTION ( 'NONE',  ( -0.000000000000000000, 1.000000000000000000, -0.000000000000000000 ) ) ;
#364 = EDGE_CURVE ( 'NONE', #357, #70, #440, .T. ) ;
#365 = EDGE_CURVE ( 'NONE', #405, #241, #86, .T. ) ;
#366 = ORIENTED_EDGE ( 'NONE', *, *, #441, .F. ) ;
#367 = CALENDAR_DATE ( 2026, 22, 9 ) ;
#368 = ORIENTED_EDGE ( 'NONE', *, *, #443, .F. ) ;
#369 = PRODUCT_DEFINITION_SHAPE ( 'NONE', 'NONE',  #530 ) ;
#370 = CARTESIAN_POINT ( 'NONE',  ( 0.000000000000000000, 7.599999999999999645, 0.000000000000000000 ) ) ;
#371 = APPROVAL_DATE_TIME ( #234, #119 ) ;
#372 = CIRCLE ( 'NONE', #381, 3.250000000000002665 ) ;
#373 = EDGE_CURVE ( 'NONE', #313, #442, #254, .T. ) ;
#374 = DIRECTION ( 'NONE',  ( 0.000000000000000000, -0.000000000000000000, -1.000000000000000000 ) ) ;
#375 = DIRECTION ( 'NONE',  ( 1.000000000000000000, 0.000000000000000000, 0.000000000000000000 ) ) ;
#376 = ORIENTED_EDGE ( 'NONE', *, *, #203, .T. ) ;
#377 = CARTESIAN_POINT ( 'NONE',  ( -150.0000000000000284, 7.599999999999999645, 150.0000000000000568 ) ) ;
#378 = MANIFOLD_SOLID_BREP ( 'Вырез-Вытянуть5', #554 ) ;
#379 = PERSON ( 'UNSPECIFIED', 'UNSPECIFIED', 'UNSPECIFIED', ('UNSPECIFIED'), ('UNSPECIFIED'), ('UNSPECIFIED') ) ;
#380 = CALENDAR_DATE ( 2026, 22, 9 ) ;
#381 = AXIS2_PLACEMENT_3D ( 'NONE', #154, #327, #509 ) ;
#382 = ORIENTED_EDGE ( 'NONE', *, *, #513, .T. ) ;
#383 = CARTESIAN_POINT ( 'NONE',  ( -60.00000000000002842, 7.599999999999999645, 150.0000000000000568 ) ) ;
#384 = COORDINATED_UNIVERSAL_TIME_OFFSET ( 3, 0, .AHEAD. ) ;
#385 = ORIENTED_EDGE ( 'NONE', *, *, #282, .F. ) ;
#386 = LINE ( 'NONE', #242, #15 ) ;
#387 = DIRECTION ( 'NONE',  ( 0.000000000000000000, 0.000000000000000000, 1.000000000000000000 ) ) ;
#388 = DIRECTION ( 'NONE',  ( 0.000000000000000000, 0.000000000000000000, -1.000000000000000000 ) ) ;
#389 = DIRECTION ( 'NONE',  ( 0.000000000000000000, 0.000000000000000000, -1.000000000000000000 ) ) ;
#390 = EDGE_LOOP ( 'NONE', ( #435, #54 ) ) ;
#391 = AXIS2_PLACEMENT_3D ( 'NONE', #92, #389, #124 ) ;
#392 = EDGE_CURVE ( 'NONE', #137, #96, #339, .T. ) ;
#393 = EDGE_CURVE ( 'NONE', #415, #39, #30, .T. ) ;
#394 = VECTOR ( 'NONE', #464, 1000.000000000000000 ) ;
#395 = CARTESIAN_POINT ( 'NONE',  ( -60.00000000000002842, 8.000000000000000000, 150.0000000000000284 ) ) ;
#396 = DIRECTION ( 'NONE',  ( 0.000000000000000000, 0.000000000000000000, -1.000000000000000000 ) ) ;
#397 = ORIENTED_EDGE ( 'NONE', *, *, #246, .F. ) ;
#398 = CARTESIAN_POINT ( 'NONE',  ( -150.0000000000000284, 8.000000000000000000, 150.0000000000000568 ) ) ;
#399 = CARTESIAN_POINT ( 'NONE',  ( 149.9999999999999716, 8.000000000000000000, 150.0000000000000000 ) ) ;
#400 = VECTOR ( 'NONE', #236, 1000.000000000000000 ) ;
#401 = VECTOR ( 'NONE', #463, 1000.000000000000000 ) ;
#402 = DIRECTION ( 'NONE',  ( 0.000000000000000000, 1.000000000000000000, 0.000000000000000000 ) ) ;
#403 = ORIENTED_EDGE ( 'NONE', *, *, #202, .F. ) ;
#404 = CYLINDRICAL_SURFACE ( 'NONE', #546, 3.250000000000002665 ) ;
#405 = VERTEX_POINT ( 'NONE', #523 ) ;
#406 = LINE ( 'NONE', #359, #465 ) ;
#407 = LOCAL_TIME ( 15, 27, 58.00000000000000000, #422 ) ;
#408 = ORIENTED_EDGE ( 'NONE', *, *, #104, .T. ) ;
#409 = FACE_BOUND ( 'NONE', #390, .T. ) ;
#410 = ADVANCED_FACE ( 'NONE', ( #447 ), #8, .F. ) ;
#411 = CARTESIAN_POINT ( 'NONE',  ( 0.000000000000000000, -192.0000000000000000, -60.00000000000000000 ) ) ;
#412 = EDGE_CURVE ( 'NONE', #137, #148, #219, .T. ) ;
#413 = VERTEX_POINT ( 'NONE', #516 ) ;
#414 = DATE_TIME_ROLE ( 'creation_date' ) ;
#415 = VERTEX_POINT ( 'NONE', #304 ) ;
#416 = CARTESIAN_POINT ( 'NONE',  ( 149.9999999999999716, 0.000000000000000000, 150.0000000000000000 ) ) ;
#417 = PERSON_AND_ORGANIZATION ( #379, #125 ) ;
#418 = APPROVAL ( #205, 'UNSPECIFIED' ) ;
#419 = CARTESIAN_POINT ( 'NONE',  ( -76.87263897103090926, -192.0000000000000000, -60.00000000000000000 ) ) ;
#420 = FACE_OUTER_BOUND ( 'NONE', #541, .T. ) ;
#421 = PERSON_AND_ORGANIZATION ( #379, #125 ) ;
#422 = COORDINATED_UNIVERSAL_TIME_OFFSET ( 3, 0, .AHEAD. ) ;
#423 = CARTESIAN_POINT ( 'NONE',  ( -60.00000000000002842, 7.599999999999999645, 150.0000000000000568 ) ) ;
#424 = VECTOR ( 'NONE', #454, 1000.000000000000000 ) ;
#425 = EDGE_LOOP ( 'NONE', ( #218, #249 ) ) ;
#426 = DIRECTION ( 'NONE',  ( 0.000000000000000000, 0.000000000000000000, 1.000000000000000000 ) ) ;
#427 = LINE ( 'NONE', #68, #83 ) ;
#428 = ORIENTED_EDGE ( 'NONE', *, *, #518, .F. ) ;
#429 = CARTESIAN_POINT ( 'NONE',  ( -150.0000000000000284, 8.000000000000000000, -149.9999999999999432 ) ) ;
#430 = DATE_AND_TIME ( #553, #407 ) ;
#431 = LINE ( 'NONE', #445, #123 ) ;
#432 = PLANE ( 'NONE',  #109 ) ;
#433 = PRODUCT_RELATED_PRODUCT_CATEGORY ( 'detail', '', ( #506 ) ) ;
#434 = VECTOR ( 'NONE', #436, 1000.000000000000000 ) ;
#435 = ORIENTED_EDGE ( 'NONE', *, *, #168, .F. ) ;
#436 = DIRECTION ( 'NONE',  ( 1.000000000000000000, -0.000000000000000000, -1.850371707708594316E-16 ) ) ;
#437 = DIRECTION ( 'NONE',  ( -1.000000000000000000, -0.000000000000000000, -0.000000000000000000 ) ) ;
#438 = ORIENTED_EDGE ( 'NONE', *, *, #373, .T. ) ;
#439 = CARTESIAN_POINT ( 'NONE',  ( -60.00000000000002842, 7.599999999999999645, 150.0000000000000568 ) ) ;
#440 = LINE ( 'NONE', #258, #266 ) ;
#441 = EDGE_CURVE ( 'NONE', #457, #262, #127, .T. ) ;
#442 = VERTEX_POINT ( 'NONE', #297 ) ;
#443 = EDGE_CURVE ( 'NONE', #180, #99, #10, .T. ) ;
#444 = DIRECTION ( 'NONE',  ( 0.000000000000000000, 0.000000000000000000, -1.000000000000000000 ) ) ;
#445 = CARTESIAN_POINT ( 'NONE',  ( -60.00000000000002842, 7.599999999999999645, 150.0000000000000568 ) ) ;
#446 = VECTOR ( 'NONE', #337, 1000.000000000000000 ) ;
#447 = FACE_OUTER_BOUND ( 'NONE', #231, .T. ) ;
#448 = DIRECTION ( 'NONE',  ( 1.850371707708594316E-16, -0.000000000000000000, 1.000000000000000000 ) ) ;
#449 = EDGE_LOOP ( 'NONE', ( #255, #376, #23, #385 ) ) ;
#450 =( LENGTH_UNIT ( ) NAMED_UNIT ( * ) SI_UNIT ( .MILLI., .METRE. ) );
#451 = ORIENTED_EDGE ( 'NONE', *, *, #365, .F. ) ;
#452 = CIRCLE ( 'NONE', #472, 3.250000000000009770 ) ;
#453 = CIRCLE ( 'NONE', #342, 3.250000000000009770 ) ;
#454 = DIRECTION ( 'NONE',  ( -0.000000000000000000, -1.000000000000000000, -0.000000000000000000 ) ) ;
#455 = ORIENTED_EDGE ( 'NONE', *, *, #513, .F. ) ;
#456 = CARTESIAN_POINT ( 'NONE',  ( 3.980102097228899218E-16, -192.0000000000000000, -63.25000000000000000 ) ) ;
#457 = VERTEX_POINT ( 'NONE', #163 ) ;
#458 = DIRECTION ( 'NONE',  ( 0.000000000000000000, 0.000000000000000000, -1.000000000000000000 ) ) ;
#459 = EDGE_CURVE ( 'NONE', #241, #135, #261, .T. ) ;
#460 = EDGE_CURVE ( 'NONE', #457, #150, #452, .T. ) ;
#461 = EDGE_CURVE ( 'NONE', #103, #413, #520, .T. ) ;
#462 = FACE_OUTER_BOUND ( 'NONE', #449, .T. ) ;
#463 = DIRECTION ( 'NONE',  ( -0.000000000000000000, 1.000000000000000000, -0.000000000000000000 ) ) ;
#464 = DIRECTION ( 'NONE',  ( 1.000000000000000000, -0.000000000000000000, -1.850371707708594316E-16 ) ) ;
#465 = VECTOR ( 'NONE', #143, 1000.000000000000000 ) ;
#466 = ORIENTED_EDGE ( 'NONE', *, *, #285, .T. ) ;
#467 = MECHANICAL_CONTEXT ( 'NONE', #221, 'mechanical' ) ;
#468 = FACE_OUTER_BOUND ( 'NONE', #503, .T. ) ;
#469 = APPROVAL_STATUS ( 'not_yet_approved' ) ;
#470 = PERSON_AND_ORGANIZATION_ROLE ( 'design_supplier' ) ;
#471 = ORIENTED_EDGE ( 'NONE', *, *, #246, .T. ) ;
#472 = AXIS2_PLACEMENT_3D ( 'NONE', #84, #252, #387 ) ;
#473 = DIRECTION ( 'NONE',  ( -0.000000000000000000, -1.000000000000000000, -0.000000000000000000 ) ) ;
#474 = EDGE_CURVE ( 'NONE', #415, #536, #19, .T. ) ;
#475 = ORIENTED_EDGE ( 'NONE', *, *, #365, .T. ) ;
#476 = CARTESIAN_POINT ( 'NONE',  ( -76.87263897103090926, 0.000000000000000000, -63.25000000000000000 ) ) ;
#477 = DIRECTION ( 'NONE',  ( 0.000000000000000000, 0.000000000000000000, -1.000000000000000000 ) ) ;
#478 = AXIS2_PLACEMENT_3D ( 'NONE', #79, #338, #426 ) ;
#479 = VECTOR ( 'NONE', #273, 1000.000000000000000 ) ;
#480 = ORIENTED_EDGE ( 'NONE', *, *, #483, .F. ) ;
#481 = CARTESIAN_POINT ( 'NONE',  ( 0.000000000000000000, 0.000000000000000000, -56.74999999999999289 ) ) ;
#482 = DIRECTION ( 'NONE',  ( 1.000000000000000000, 0.000000000000000000, -1.850371707708594316E-16 ) ) ;
#483 = EDGE_CURVE ( 'NONE', #262, #499, #7, .T. ) ;
#484 = PLANE ( 'NONE',  #6 ) ;
#485 = ORIENTED_EDGE ( 'NONE', *, *, #301, .F. ) ;
#486 = DIRECTION ( 'NONE',  ( -0.000000000000000000, -1.000000000000000000, -0.000000000000000000 ) ) ;
#487 = CARTESIAN_POINT ( 'NONE',  ( 149.9999999999999716, 8.000000000000000000, -150.0000000000000000 ) ) ;
#488 = EDGE_CURVE ( 'NONE', #442, #137, #540, .T. ) ;
#489 = DIRECTION ( 'NONE',  ( 0.000000000000000000, 0.000000000000000000, 1.000000000000000000 ) ) ;
#490 = ORIENTED_EDGE ( 'NONE', *, *, #412, .T. ) ;
#491 = CARTESIAN_POINT ( 'NONE',  ( -150.0000000000000284, 8.000000000000000000, 60.00000000000006395 ) ) ;
#492 = ORIENTED_EDGE ( 'NONE', *, *, #104, .F. ) ;
#493 = AXIS2_PLACEMENT_3D ( 'NONE', #87, #527, #343 ) ;
#494 = DIRECTION ( 'NONE',  ( -0.000000000000000000, 1.000000000000000000, -0.000000000000000000 ) ) ;
#495 = AXIS2_PLACEMENT_3D ( 'NONE', #138, #355, #265 ) ;
#496 = DIRECTION ( 'NONE',  ( 0.000000000000000000, 1.000000000000000000, 0.000000000000000000 ) ) ;
#497 = EDGE_CURVE ( 'NONE', #180, #135, #502, .T. ) ;
#498 = ADVANCED_FACE ( 'NONE', ( #107 ), #404, .F. ) ;
#499 = VERTEX_POINT ( 'NONE', #533 ) ;
#500 = CARTESIAN_POINT ( 'NONE',  ( -150.0000000000000284, 7.599999999999999645, 60.00000000000006395 ) ) ;
#501 = ORIENTED_EDGE ( 'NONE', *, *, #474, .F. ) ;
#502 = LINE ( 'NONE', #178, #424 ) ;
#503 = EDGE_LOOP ( 'NONE', ( #428, #348, #351, #322 ) ) ;
#504 = CIRCLE ( 'NONE', #545, 3.250000000000009770 ) ;
#505 = COORDINATED_UNIVERSAL_TIME_OFFSET ( 3, 0, .AHEAD. ) ;
#506 = PRODUCT ( '\X2\041e0441043d043004410442043a0430\X0\ \X2\0434043b044f\X0\ \X2\0441043204300440043a0438\X0\ 1', '\X2\041e0441043d043004410442043a0430\X0\ \X2\0434043b044f\X0\ \X2\0441043204300440043a0438\X0\ 1', '', ( #467 ) ) ;
#507 = DIRECTION ( 'NONE',  ( -0.000000000000000000, 1.000000000000000000, -0.000000000000000000 ) ) ;
#508 = DIRECTION ( 'NONE',  ( 0.000000000000000000, 1.000000000000000000, 0.000000000000000000 ) ) ;
#509 = DIRECTION ( 'NONE',  ( 0.000000000000000000, 0.000000000000000000, 1.000000000000000000 ) ) ;
#510 = DIRECTION ( 'NONE',  ( 1.000000000000000000, -0.000000000000000000, 0.000000000000000000 ) ) ;
#511 = EDGE_CURVE ( 'NONE', #405, #180, #269, .T. ) ;
#512 = EDGE_CURVE ( 'NONE', #148, #241, #14, .T. ) ;
#513 = EDGE_CURVE ( 'NONE', #442, #319, #147, .T. ) ;
#514 = VERTEX_POINT ( 'NONE', #318 ) ;
#515 = FACE_OUTER_BOUND ( 'NONE', #306, .T. ) ;
#516 = CARTESIAN_POINT ( 'NONE',  ( 76.87263897103090926, 0.000000000000000000, -56.74999999999998579 ) ) ;
#517 = ORIENTED_EDGE ( 'NONE', *, *, #168, .T. ) ;
#518 = EDGE_CURVE ( 'NONE', #150, #499, #307, .T. ) ;
#519 = FACE_OUTER_BOUND ( 'NONE', #27, .T. ) ;
#520 = CIRCLE ( 'NONE', #340, 3.250000000000009770 ) ;
#521 = VECTOR ( 'NONE', #363, 1000.000000000000000 ) ;
#522 = LINE ( 'NONE', #290, #434 ) ;
#523 = CARTESIAN_POINT ( 'NONE',  ( 149.9999999999999716, 8.000000000000000000, 150.0000000000000000 ) ) ;
#524 = DIRECTION ( 'NONE',  ( -1.000000000000000000, 0.000000000000000000, 0.000000000000000000 ) ) ;
#525 = EDGE_LOOP ( 'NONE', ( #326, #455, #42, #214 ) ) ;
#526 = CC_DESIGN_SECURITY_CLASSIFICATION ( #229, ( #556 ) ) ;
#527 = DIRECTION ( 'NONE',  ( 0.000000000000000000, 1.000000000000000000, 0.000000000000000000 ) ) ;
#528 = EDGE_CURVE ( 'NONE', #70, #319, #65, .T. ) ;
#529 = AXIS2_PLACEMENT_3D ( 'NONE', #317, #555, #157 ) ;
#530 = PRODUCT_DEFINITION ( 'UNKNOWN', '', #556, #289 ) ;
#531 = FACE_BOUND ( 'NONE', #101, .T. ) ;
#532 = ORIENTED_EDGE ( 'NONE', *, *, #412, .F. ) ;
#533 = CARTESIAN_POINT ( 'NONE',  ( -76.87263897103090926, 8.000000000000000000, -63.25000000000000000 ) ) ;
#534 = EDGE_LOOP ( 'NONE', ( #121, #129, #368, #309 ) ) ;
#535 = ADVANCED_FACE ( 'NONE', ( #350 ), #97, .F. ) ;
#536 = VERTEX_POINT ( 'NONE', #60 ) ;
#537 = VECTOR ( 'NONE', #437, 1000.000000000000000 ) ;
#538 = DIRECTION ( 'NONE',  ( 0.000000000000000000, 0.000000000000000000, 1.000000000000000000 ) ) ;
#539 = ORIENTED_EDGE ( 'NONE', *, *, #393, .T. ) ;
#540 = LINE ( 'NONE', #144, #312 ) ;
#541 = EDGE_LOOP ( 'NONE', ( #191, #200, #188, #438 ) ) ;
#542 = APPLICATION_PROTOCOL_DEFINITION ( 'international standard', 'config_control_design', 1994, #44 ) ;
#543 = EDGE_LOOP ( 'NONE', ( #53, #126, #198, #490, #67, #451 ) ) ;
#544 = PERSON_AND_ORGANIZATION ( #379, #125 ) ;
#545 = AXIS2_PLACEMENT_3D ( 'NONE', #331, #114, #335 ) ;
#546 = AXIS2_PLACEMENT_3D ( 'NONE', #411, #315, #227 ) ;
#547 = DIRECTION ( 'NONE',  ( -0.000000000000000000, 1.000000000000000000, -0.000000000000000000 ) ) ;
#548 = LINE ( 'NONE', #277, #400 ) ;
#549 = CALENDAR_DATE ( 2026, 22, 9 ) ;
#550 = CARTESIAN_POINT ( 'NONE',  ( 149.9999999999999716, 8.000000000000000000, -150.0000000000000000 ) ) ;
#551 = ADVANCED_FACE ( 'NONE', ( #531, #21, #187, #230 ), #263, .F. ) ;
#552 = EDGE_CURVE ( 'NONE', #413, #103, #453, .T. ) ;
#553 = CALENDAR_DATE ( 2026, 22, 9 ) ;
#554 = CLOSED_SHELL ( 'NONE', ( #259, #535, #498, #160, #345, #410, #302, #161, #551, #89, #11, #329, #346, #105, #245 ) ) ;
#555 = DIRECTION ( 'NONE',  ( 0.000000000000000000, 1.000000000000000000, 0.000000000000000000 ) ) ;
#556 = PRODUCT_DEFINITION_FORMATION_WITH_SPECIFIED_SOURCE ( 'ANY', '', #506, .NOT_KNOWN. ) ;
#557 = APPROVAL_DATE_TIME ( #208, #204 ) ;
#558 = DIRECTION ( 'NONE',  ( 0.000000000000000000, 0.000000000000000000, 1.000000000000000000 ) ) ;
ENDSEC;
END-ISO-10303-21;
