ISO-10303-21;
HEADER;
FILE_DESCRIPTION (( 'STEP AP214' ),
    '1' );
FILE_NAME ('Оснастка для сварки 2.STEP',
    '2026-09-22T12:28:56',
    ( '' ),
    ( '' ),
    'SwSTEP 2.0',
    'SolidWorks 2024',
    '' );
FILE_SCHEMA (( 'AUTOMOTIVE_DESIGN' ));
ENDSEC;

DATA;
#1 = VECTOR ( 'NONE', #400, 1000.000000000000000 ) ;
#2 = DIRECTION ( 'NONE',  ( 0.000000000000000000, 1.000000000000000000, 0.000000000000000000 ) ) ;
#3 =( GEOMETRIC_REPRESENTATION_CONTEXT ( 3 ) GLOBAL_UNCERTAINTY_ASSIGNED_CONTEXT ( ( #304 ) ) GLOBAL_UNIT_ASSIGNED_CONTEXT ( ( #132, #221, #515 ) ) REPRESENTATION_CONTEXT ( 'NONE', 'WORKASPACE' ) );
#4 = FACE_BOUND ( 'NONE', #259, .T. ) ;
#5 = CYLINDRICAL_SURFACE ( 'NONE', #330, 3.250000000000002665 ) ;
#6 = DIRECTION ( 'NONE',  ( 0.000000000000000000, 0.000000000000000000, -1.000000000000000000 ) ) ;
#7 = CYLINDRICAL_SURFACE ( 'NONE', #207, 3.250000000000002665 ) ;
#8 = CIRCLE ( 'NONE', #91, 3.250000000000002665 ) ;
#9 = CARTESIAN_POINT ( 'NONE',  ( 90.27822178886746940, 65.50000000000000000, -50.00000000000000000 ) ) ;
#10 = ADVANCED_FACE ( 'NONE', ( #318 ), #460, .F. ) ;
#11 = AXIS2_PLACEMENT_3D ( 'NONE', #329, #237, #93 ) ;
#12 = CARTESIAN_POINT ( 'NONE',  ( -76.87263897103090926, 8.000000000000000000, -63.25000000000000000 ) ) ;
#13 = DIRECTION ( 'NONE',  ( 0.000000000000000000, 0.000000000000000000, -1.000000000000000000 ) ) ;
#14 = ORIENTED_EDGE ( 'NONE', *, *, #319, .F. ) ;
#15 = ORIENTED_EDGE ( 'NONE', *, *, #512, .T. ) ;
#16 = LINE ( 'NONE', #9, #474 ) ;
#17 = VERTEX_POINT ( 'NONE', #120 ) ;
#18 = ORIENTED_EDGE ( 'NONE', *, *, #519, .T. ) ;
#19 = EDGE_CURVE ( 'NONE', #368, #352, #541, .T. ) ;
#20 = LINE ( 'NONE', #146, #22 ) ;
#21 = ORIENTED_EDGE ( 'NONE', *, *, #225, .F. ) ;
#22 = VECTOR ( 'NONE', #517, 1000.000000000000000 ) ;
#23 = ORIENTED_EDGE ( 'NONE', *, *, #218, .F. ) ;
#24 = AXIS2_PLACEMENT_3D ( 'NONE', #150, #404, #160 ) ;
#25 = FACE_OUTER_BOUND ( 'NONE', #196, .T. ) ;
#26 = CARTESIAN_POINT ( 'NONE',  ( 90.27822178886746940, 15.50000000000000000, -75.54710602451980606 ) ) ;
#27 = ORIENTED_EDGE ( 'NONE', *, *, #480, .T. ) ;
#28 = EDGE_CURVE ( 'NONE', #122, #69, #44, .T. ) ;
#29 = DIRECTION ( 'NONE',  ( 0.000000000000000000, 1.000000000000000000, 0.000000000000000000 ) ) ;
#30 =( NAMED_UNIT ( * ) PLANE_ANGLE_UNIT ( ) SI_UNIT ( $, .RADIAN. ) );
#31 = ORIENTED_EDGE ( 'NONE', *, *, #492, .F. ) ;
#32 = CARTESIAN_POINT ( 'NONE',  ( -94.46746641944130829, 65.50000000000000000, -44.00000000000000711 ) ) ;
#33 = EDGE_CURVE ( 'NONE', #92, #188, #125, .T. ) ;
#34 = VECTOR ( 'NONE', #48, 1000.000000000000000 ) ;
#35 = APPLICATION_PROTOCOL_DEFINITION ( 'draft international standard', 'automotive_design', 1998, #291 ) ;
#36 = DIRECTION ( 'NONE',  ( -0.000000000000000000, -1.000000000000000000, -0.000000000000000000 ) ) ;
#37 = CARTESIAN_POINT ( 'NONE',  ( 0.000000000000000000, 8.000000000000000000, -63.25000000000000000 ) ) ;
#38 = AXIS2_PLACEMENT_3D ( 'NONE', #126, #123, #157 ) ;
#39 = ORIENTED_EDGE ( 'NONE', *, *, #531, .T. ) ;
#40 = ORIENTED_EDGE ( 'NONE', *, *, #95, .T. ) ;
#41 = CARTESIAN_POINT ( 'NONE',  ( 0.000000000000000000, 8.000000000000000000, -60.00000000000000000 ) ) ;
#42 = ADVANCED_FACE ( 'NONE', ( #202 ), #5, .F. ) ;
#43 = FACE_OUTER_BOUND ( 'NONE', #246, .T. ) ;
#44 = LINE ( 'NONE', #248, #199 ) ;
#45 = VERTEX_POINT ( 'NONE', #205 ) ;
#46 = AXIS2_PLACEMENT_3D ( 'NONE', #375, #363, #469 ) ;
#47 = VECTOR ( 'NONE', #357, 1000.000000000000000 ) ;
#48 = DIRECTION ( 'NONE',  ( -0.000000000000000000, -1.000000000000000000, -0.000000000000000000 ) ) ;
#49 = VECTOR ( 'NONE', #270, 1000.000000000000000 ) ;
#50 = ADVANCED_FACE ( 'NONE', ( #277, #200, #164, #320 ), #500, .T. ) ;
#51 = PLANE ( 'NONE',  #254 ) ;
#52 = DIRECTION ( 'NONE',  ( -0.000000000000000000, -0.000000000000000000, -1.000000000000000000 ) ) ;
#53 = VECTOR ( 'NONE', #217, 1000.000000000000000 ) ;
#54 = EDGE_CURVE ( 'NONE', #419, #539, #280, .T. ) ;
#55 = CIRCLE ( 'NONE', #461, 3.250000000000009770 ) ;
#56 = CARTESIAN_POINT ( 'NONE',  ( -94.46746641944130829, 15.50000000000000000, 14.45289397548019217 ) ) ;
#57 = DIRECTION ( 'NONE',  ( -0.000000000000000000, -1.000000000000000000, -0.000000000000000000 ) ) ;
#58 = LINE ( 'NONE', #382, #53 ) ;
#59 = VECTOR ( 'NONE', #166, 1000.000000000000000 ) ;
#60 = CARTESIAN_POINT ( 'NONE',  ( -76.87263897103090926, 15.50000000000000000, -60.00000000000000000 ) ) ;
#61 = ORIENTED_EDGE ( 'NONE', *, *, #435, .T. ) ;
#62 = PRESENTATION_STYLE_ASSIGNMENT (( #258 ) ) ;
#63 = EDGE_CURVE ( 'NONE', #242, #262, #505, .T. ) ;
#64 = CYLINDRICAL_SURFACE ( 'NONE', #465, 3.250000000000002665 ) ;
#65 = EDGE_CURVE ( 'NONE', #69, #339, #289, .T. ) ;
#66 = LINE ( 'NONE', #533, #417 ) ;
#67 = ORIENTED_EDGE ( 'NONE', *, *, #531, .F. ) ;
#68 = CARTESIAN_POINT ( 'NONE',  ( -94.46746641944130829, 15.50000000000000000, 14.45289397548019217 ) ) ;
#69 = VERTEX_POINT ( 'NONE', #213 ) ;
#70 = CARTESIAN_POINT ( 'NONE',  ( 76.87263897103090926, 15.50000000000000000, -56.74999999999998579 ) ) ;
#71 = VECTOR ( 'NONE', #483, 1000.000000000000000 ) ;
#72 = DIRECTION ( 'NONE',  ( 0.000000000000000000, 1.000000000000000000, 0.000000000000000000 ) ) ;
#73 = ORIENTED_EDGE ( 'NONE', *, *, #158, .T. ) ;
#74 = APPLICATION_CONTEXT ( 'automotive_design' ) ;
#75 = AXIS2_PLACEMENT_3D ( 'NONE', #101, #288, #136 ) ;
#76 = EDGE_LOOP ( 'NONE', ( #525, #450 ) ) ;
#77 = CARTESIAN_POINT ( 'NONE',  ( 76.87263897103090926, 8.000000000000000000, -60.00000000000000000 ) ) ;
#78 = PLANE ( 'NONE',  #449 ) ;
#79 = VERTEX_POINT ( 'NONE', #284 ) ;
#80 = CARTESIAN_POINT ( 'NONE',  ( 90.27822178886746940, 65.50000000000000000, -50.00000000000000000 ) ) ;
#81 = LINE ( 'NONE', #116, #124 ) ;
#82 = ORIENTED_EDGE ( 'NONE', *, *, #127, .F. ) ;
#83 = ORIENTED_EDGE ( 'NONE', *, *, #426, .T. ) ;
#84 = PLANE ( 'NONE',  #175 ) ;
#85 = ORIENTED_EDGE ( 'NONE', *, *, #455, .F. ) ;
#86 = EDGE_CURVE ( 'NONE', #79, #183, #379, .T. ) ;
#87 = CARTESIAN_POINT ( 'NONE',  ( -94.46746641944130829, 15.50000000000000000, -75.54710602451980606 ) ) ;
#88 = VERTEX_POINT ( 'NONE', #211 ) ;
#89 = ORIENTED_EDGE ( 'NONE', *, *, #172, .F. ) ;
#90 = DIRECTION ( 'NONE',  ( 0.000000000000000000, 1.000000000000000000, 0.000000000000000000 ) ) ;
#91 = AXIS2_PLACEMENT_3D ( 'NONE', #409, #313, #274 ) ;
#92 = VERTEX_POINT ( 'NONE', #381 ) ;
#93 = DIRECTION ( 'NONE',  ( 0.000000000000000000, 0.000000000000000000, 1.000000000000000000 ) ) ;
#94 = VECTOR ( 'NONE', #326, 1000.000000000000000 ) ;
#95 = EDGE_CURVE ( 'NONE', #262, #351, #334, .T. ) ;
#96 = EDGE_CURVE ( 'NONE', #118, #88, #421, .T. ) ;
#97 = CARTESIAN_POINT ( 'NONE',  ( 90.27822178886746940, 15.50000000000000000, -50.00000000000000711 ) ) ;
#98 = CARTESIAN_POINT ( 'NONE',  ( -94.46746641944130829, 15.50000000000000000, 14.45289397548019217 ) ) ;
#99 = CIRCLE ( 'NONE', #396, 3.250000000000009770 ) ;
#100 = COLOUR_RGB ( '',0.7921568627450980005, 0.8196078431372548767, 0.9333333333333333481 ) ;
#101 = CARTESIAN_POINT ( 'NONE',  ( 76.87263897103090926, 15.50000000000000000, -60.00000000000000000 ) ) ;
#102 = FACE_OUTER_BOUND ( 'NONE', #412, .T. ) ;
#103 = CARTESIAN_POINT ( 'NONE',  ( 90.27822178886746940, 15.50000000000000000, -44.00000000000000711 ) ) ;
#104 = PRODUCT_RELATED_PRODUCT_CATEGORY ( 'part', '', ( #437 ) ) ;
#105 = ORIENTED_EDGE ( 'NONE', *, *, #477, .F. ) ;
#106 = EDGE_LOOP ( 'NONE', ( #143, #387, #245, #314, #224, #348, #110, #358 ) ) ;
#107 = EDGE_CURVE ( 'NONE', #17, #527, #206, .T. ) ;
#108 = DIRECTION ( 'NONE',  ( 1.000000000000000000, 0.000000000000000000, 0.000000000000000000 ) ) ;
#109 = ORIENTED_EDGE ( 'NONE', *, *, #63, .T. ) ;
#110 = ORIENTED_EDGE ( 'NONE', *, *, #374, .F. ) ;
#111 = ORIENTED_EDGE ( 'NONE', *, *, #251, .T. ) ;
#112 = LINE ( 'NONE', #532, #267 ) ;
#113 = ORIENTED_EDGE ( 'NONE', *, *, #28, .F. ) ;
#114 = ORIENTED_EDGE ( 'NONE', *, *, #269, .T. ) ;
#115 = LINE ( 'NONE', #68, #71 ) ;
#116 = CARTESIAN_POINT ( 'NONE',  ( -76.87263897103090926, 15.50000000000000000, -56.74999999999998579 ) ) ;
#117 = CARTESIAN_POINT ( 'NONE',  ( -94.46746641944130829, 65.50000000000000000, -50.00000000000000000 ) ) ;
#118 = VERTEX_POINT ( 'NONE', #37 ) ;
#119 = EDGE_CURVE ( 'NONE', #88, #118, #529, .T. ) ;
#120 = CARTESIAN_POINT ( 'NONE',  ( 90.27822178886746940, 15.50000000000000000, -75.54710602451980606 ) ) ;
#121 = DIRECTION ( 'NONE',  ( 0.000000000000000000, -0.000000000000000000, 1.000000000000000000 ) ) ;
#122 = VERTEX_POINT ( 'NONE', #162 ) ;
#123 = DIRECTION ( 'NONE',  ( 0.000000000000000000, 1.000000000000000000, 0.000000000000000000 ) ) ;
#124 = VECTOR ( 'NONE', #537, 1000.000000000000000 ) ;
#125 = LINE ( 'NONE', #117, #34 ) ;
#126 = CARTESIAN_POINT ( 'NONE',  ( 0.000000000000000000, 15.50000000000000000, 0.000000000000000000 ) ) ;
#127 = EDGE_CURVE ( 'NONE', #419, #368, #209, .T. ) ;
#128 = CARTESIAN_POINT ( 'NONE',  ( 76.87263897103090926, 15.50000000000000000, -56.74999999999998579 ) ) ;
#129 = VECTOR ( 'NONE', #467, 1000.000000000000000 ) ;
#130 = DIRECTION ( 'NONE',  ( -0.000000000000000000, -1.000000000000000000, -0.000000000000000000 ) ) ;
#131 = ADVANCED_FACE ( 'NONE', ( #413 ), #169, .T. ) ;
#132 =( LENGTH_UNIT ( ) NAMED_UNIT ( * ) SI_UNIT ( .MILLI., .METRE. ) );
#133 = DIRECTION ( 'NONE',  ( 0.000000000000000000, 0.000000000000000000, -1.000000000000000000 ) ) ;
#134 = VECTOR ( 'NONE', #155, 1000.000000000000000 ) ;
#135 = PRESENTATION_LAYER_ASSIGNMENT (  '', '', ( #476 ) ) ;
#136 = DIRECTION ( 'NONE',  ( 0.000000000000000000, 0.000000000000000000, 1.000000000000000000 ) ) ;
#137 = EDGE_CURVE ( 'NONE', #539, #79, #495, .T. ) ;
#138 = ORIENTED_EDGE ( 'NONE', *, *, #470, .T. ) ;
#139 = ORIENTED_EDGE ( 'NONE', *, *, #535, .T. ) ;
#140 = DIRECTION ( 'NONE',  ( 0.000000000000000000, -0.000000000000000000, 1.000000000000000000 ) ) ;
#141 = ORIENTED_EDGE ( 'NONE', *, *, #470, .F. ) ;
#142 =( LENGTH_UNIT ( ) NAMED_UNIT ( * ) SI_UNIT ( .MILLI., .METRE. ) );
#143 = ORIENTED_EDGE ( 'NONE', *, *, #328, .T. ) ;
#144 = EDGE_CURVE ( 'NONE', #122, #352, #416, .T. ) ;
#145 = CIRCLE ( 'NONE', #442, 3.250000000000009770 ) ;
#146 = CARTESIAN_POINT ( 'NONE',  ( 0.000000000000000000, 15.50000000000000000, -63.25000000000000000 ) ) ;
#147 = ORIENTED_EDGE ( 'NONE', *, *, #158, .F. ) ;
#148 = ORIENTED_EDGE ( 'NONE', *, *, #440, .T. ) ;
#149 = CARTESIAN_POINT ( 'NONE',  ( -94.46746641944130829, 15.50000000000000000, -75.54710602451980606 ) ) ;
#150 = CARTESIAN_POINT ( 'NONE',  ( 90.27822178886746940, 15.50000000000000000, -75.54710602451980606 ) ) ;
#151 = AXIS2_PLACEMENT_3D ( 'NONE', #168, #503, #121 ) ;
#152 = EDGE_LOOP ( 'NONE', ( #148, #490, #315, #39 ) ) ;
#153 = ORIENTED_EDGE ( 'NONE', *, *, #214, .T. ) ;
#154 = LINE ( 'NONE', #311, #323 ) ;
#155 = DIRECTION ( 'NONE',  ( -0.000000000000000000, -0.000000000000000000, -1.000000000000000000 ) ) ;
#156 = EDGE_LOOP ( 'NONE', ( #14, #141 ) ) ;
#157 = DIRECTION ( 'NONE',  ( 0.000000000000000000, -0.000000000000000000, 1.000000000000000000 ) ) ;
#158 = EDGE_CURVE ( 'NONE', #271, #296, #145, .T. ) ;
#159 = ADVANCED_FACE ( 'NONE', ( #424 ), #84, .F. ) ;
#160 = DIRECTION ( 'NONE',  ( 0.000000000000000000, 0.000000000000000000, 1.000000000000000000 ) ) ;
#161 = EDGE_LOOP ( 'NONE', ( #114, #309, #82, #482 ) ) ;
#162 = CARTESIAN_POINT ( 'NONE',  ( 90.27822178886746940, 15.50000000000000000, 14.45289397548019217 ) ) ;
#163 = FACE_BOUND ( 'NONE', #76, .T. ) ;
#164 = FACE_BOUND ( 'NONE', #302, .T. ) ;
#165 = PRODUCT_DEFINITION_FORMATION_WITH_SPECIFIED_SOURCE ( 'ANY', '', #437, .NOT_KNOWN. ) ;
#166 = DIRECTION ( 'NONE',  ( 1.000000000000000000, 0.000000000000000000, 0.000000000000000000 ) ) ;
#167 = VECTOR ( 'NONE', #478, 1000.000000000000000 ) ;
#168 = CARTESIAN_POINT ( 'NONE',  ( 0.000000000000000000, 15.50000000000000000, 0.000000000000000000 ) ) ;
#169 = PLANE ( 'NONE',  #38 ) ;
#170 = ORIENTED_EDGE ( 'NONE', *, *, #435, .F. ) ;
#171 = DIRECTION ( 'NONE',  ( -1.000000000000000000, 0.000000000000000000, -0.000000000000000000 ) ) ;
#172 = EDGE_CURVE ( 'NONE', #393, #457, #383, .T. ) ;
#173 = VECTOR ( 'NONE', #506, 1000.000000000000000 ) ;
#174 = SURFACE_STYLE_FILL_AREA ( #514 ) ;
#175 = AXIS2_PLACEMENT_3D ( 'NONE', #321, #6, #171 ) ;
#176 = CARTESIAN_POINT ( 'NONE',  ( 76.87263897103090926, 15.50000000000000000, -60.00000000000000000 ) ) ;
#177 = AXIS2_PLACEMENT_3D ( 'NONE', #41, #359, #499 ) ;
#178 = LINE ( 'NONE', #332, #167 ) ;
#179 = EDGE_CURVE ( 'NONE', #310, #351, #420, .T. ) ;
#180 = PLANE ( 'NONE',  #502 ) ;
#181 = DIRECTION ( 'NONE',  ( 0.000000000000000000, -0.000000000000000000, 1.000000000000000000 ) ) ;
#182 = ORIENTED_EDGE ( 'NONE', *, *, #33, .F. ) ;
#183 = VERTEX_POINT ( 'NONE', #272 ) ;
#184 = ORIENTED_EDGE ( 'NONE', *, *, #65, .T. ) ;
#185 = CARTESIAN_POINT ( 'NONE',  ( 76.87263897103090926, 15.50000000000000000, -60.00000000000000000 ) ) ;
#186 = ORIENTED_EDGE ( 'NONE', *, *, #426, .F. ) ;
#187 = DIRECTION ( 'NONE',  ( 0.000000000000000000, 1.000000000000000000, 0.000000000000000000 ) ) ;
#188 = VERTEX_POINT ( 'NONE', #241 ) ;
#189 = AXIS2_PLACEMENT_3D ( 'NONE', #273, #72, #226 ) ;
#190 = CIRCLE ( 'NONE', #371, 3.250000000000009770 ) ;
#191 = APPLICATION_PROTOCOL_DEFINITION ( 'draft international standard', 'automotive_design', 1998, #74 ) ;
#192 = ORIENTED_EDGE ( 'NONE', *, *, #179, .T. ) ;
#193 = VERTEX_POINT ( 'NONE', #391 ) ;
#194 = PLANE ( 'NONE',  #349 ) ;
#195 = DIRECTION ( 'NONE',  ( 0.000000000000000000, 1.000000000000000000, 0.000000000000000000 ) ) ;
#196 = EDGE_LOOP ( 'NONE', ( #372, #451, #227, #139 ) ) ;
#197 = ORIENTED_EDGE ( 'NONE', *, *, #319, .T. ) ;
#198 = CARTESIAN_POINT ( 'NONE',  ( -94.46746641944130829, 15.50000000000000000, -44.00000000000002132 ) ) ;
#199 = VECTOR ( 'NONE', #410, 1000.000000000000000 ) ;
#200 = FACE_BOUND ( 'NONE', #494, .T. ) ;
#201 = EDGE_LOOP ( 'NONE', ( #355, #528, #27, #278 ) ) ;
#202 = FACE_OUTER_BOUND ( 'NONE', #230, .T. ) ;
#203 = ADVANCED_FACE ( 'NONE', ( #438 ), #64, .F. ) ;
#204 = DIRECTION ( 'NONE',  ( -0.000000000000000000, -1.000000000000000000, -0.000000000000000000 ) ) ;
#205 = CARTESIAN_POINT ( 'NONE',  ( 90.27822178886746940, 65.50000000000000000, -50.00000000000000000 ) ) ;
#206 = LINE ( 'NONE', #369, #219 ) ;
#207 = AXIS2_PLACEMENT_3D ( 'NONE', #176, #57, #431 ) ;
#208 = ORIENTED_EDGE ( 'NONE', *, *, #455, .T. ) ;
#209 = LINE ( 'NONE', #32, #59 ) ;
#210 = VECTOR ( 'NONE', #290, 1000.000000000000000 ) ;
#211 = CARTESIAN_POINT ( 'NONE',  ( 3.980102097228903162E-16, 8.000000000000000000, -56.74999999999999289 ) ) ;
#212 = DIRECTION ( 'NONE',  ( 0.000000000000000000, 1.000000000000000000, 0.000000000000000000 ) ) ;
#213 = CARTESIAN_POINT ( 'NONE',  ( 90.27822178886746940, 8.000000000000000000, 14.45289397548019217 ) ) ;
#214 = EDGE_CURVE ( 'NONE', #446, #88, #66, .T. ) ;
#215 = FACE_OUTER_BOUND ( 'NONE', #521, .T. ) ;
#216 = CARTESIAN_POINT ( 'NONE',  ( 90.27822178886746940, 65.50000000000000000, -44.00000000000000711 ) ) ;
#217 = DIRECTION ( 'NONE',  ( 0.000000000000000000, 0.000000000000000000, 1.000000000000000000 ) ) ;
#218 = EDGE_CURVE ( 'NONE', #446, #222, #8, .T. ) ;
#219 = VECTOR ( 'NONE', #407, 1000.000000000000000 ) ;
#220 = ORIENTED_EDGE ( 'NONE', *, *, #119, .T. ) ;
#221 =( NAMED_UNIT ( * ) PLANE_ANGLE_UNIT ( ) SI_UNIT ( $, .RADIAN. ) );
#222 = VERTEX_POINT ( 'NONE', #488 ) ;
#223 = DIRECTION ( 'NONE',  ( -0.000000000000000000, -1.000000000000000000, -0.000000000000000000 ) ) ;
#224 = ORIENTED_EDGE ( 'NONE', *, *, #440, .F. ) ;
#225 = EDGE_CURVE ( 'NONE', #296, #457, #81, .T. ) ;
#226 = DIRECTION ( 'NONE',  ( 0.000000000000000000, 0.000000000000000000, 1.000000000000000000 ) ) ;
#227 = ORIENTED_EDGE ( 'NONE', *, *, #107, .F. ) ;
#228 = CARTESIAN_POINT ( 'NONE',  ( -94.46746641944130829, 65.50000000000000000, -50.00000000000000000 ) ) ;
#229 = ORIENTED_EDGE ( 'NONE', *, *, #65, .F. ) ;
#230 = EDGE_LOOP ( 'NONE', ( #21, #444, #83, #497 ) ) ;
#231 = DIRECTION ( 'NONE',  ( 0.000000000000000000, 0.000000000000000000, 1.000000000000000000 ) ) ;
#232 = DIRECTION ( 'NONE',  ( -1.000000000000000000, -0.000000000000000000, -0.000000000000000000 ) ) ;
#233 = DIRECTION ( 'NONE',  ( -0.000000000000000000, -1.000000000000000000, -0.000000000000000000 ) ) ;
#234 = CARTESIAN_POINT ( 'NONE',  ( -76.87263897103090926, 15.50000000000000000, -60.00000000000000000 ) ) ;
#235 = ADVANCED_FACE ( 'NONE', ( #308 ), #317, .F. ) ;
#236 = ORIENTED_EDGE ( 'NONE', *, *, #519, .F. ) ;
#237 = DIRECTION ( 'NONE',  ( 0.000000000000000000, 1.000000000000000000, 0.000000000000000000 ) ) ;
#238 = CARTESIAN_POINT ( 'NONE',  ( 90.27822178886746940, 15.50000000000000000, -75.54710602451980606 ) ) ;
#239 = CARTESIAN_POINT ( 'NONE',  ( 0.000000000000000000, 15.50000000000000000, -60.00000000000000000 ) ) ;
#240 = ORIENTED_EDGE ( 'NONE', *, *, #96, .T. ) ;
#241 = CARTESIAN_POINT ( 'NONE',  ( -94.46746641944130829, 15.50000000000000000, -50.00000000000000711 ) ) ;
#242 = VERTEX_POINT ( 'NONE', #70 ) ;
#243 = EDGE_CURVE ( 'NONE', #457, #393, #55, .T. ) ;
#244 = PLANE ( 'NONE',  #432 ) ;
#245 = ORIENTED_EDGE ( 'NONE', *, *, #137, .F. ) ;
#246 = EDGE_LOOP ( 'NONE', ( #266, #534, #229, #276 ) ) ;
#247 = DIRECTION ( 'NONE',  ( 0.000000000000000000, 0.000000000000000000, 1.000000000000000000 ) ) ;
#248 = CARTESIAN_POINT ( 'NONE',  ( 90.27822178886746940, 15.50000000000000000, 14.45289397548019217 ) ) ;
#249 = VECTOR ( 'NONE', #425, 1000.000000000000000 ) ;
#250 = CARTESIAN_POINT ( 'NONE',  ( 90.27822178886746940, 15.50000000000000000, -75.54710602451980606 ) ) ;
#251 = EDGE_CURVE ( 'NONE', #351, #262, #190, .T. ) ;
#252 = VECTOR ( 'NONE', #350, 1000.000000000000000 ) ;
#253 = FILL_AREA_STYLE_COLOUR ( '', #100 ) ;
#254 = AXIS2_PLACEMENT_3D ( 'NONE', #378, #212, #181 ) ;
#255 = CYLINDRICAL_SURFACE ( 'NONE', #522, 3.250000000000002665 ) ;
#256 = CYLINDRICAL_SURFACE ( 'NONE', #335, 3.250000000000002665 ) ;
#257 = DIRECTION ( 'NONE',  ( 1.000000000000000000, 0.000000000000000000, 0.000000000000000000 ) ) ;
#258 = SURFACE_STYLE_USAGE ( .BOTH. , #471 ) ;
#259 = EDGE_LOOP ( 'NONE', ( #240, #220 ) ) ;
#260 = DIRECTION ( 'NONE',  ( 0.000000000000000000, 0.000000000000000000, 1.000000000000000000 ) ) ;
#261 = ADVANCED_FACE ( 'NONE', ( #25 ), #194, .F. ) ;
#262 = VERTEX_POINT ( 'NONE', #530 ) ;
#263 = DIRECTION ( 'NONE',  ( 0.000000000000000000, 0.000000000000000000, 1.000000000000000000 ) ) ;
#264 = ORIENTED_EDGE ( 'NONE', *, *, #377, .F. ) ;
#265 = CARTESIAN_POINT ( 'NONE',  ( -94.46746641944130829, 65.50000000000000000, -50.00000000000000000 ) ) ;
#266 = ORIENTED_EDGE ( 'NONE', *, *, #328, .F. ) ;
#267 = VECTOR ( 'NONE', #448, 1000.000000000000000 ) ;
#268 = DIRECTION ( 'NONE',  ( 0.000000000000000000, 0.000000000000000000, 1.000000000000000000 ) ) ;
#269 = EDGE_CURVE ( 'NONE', #539, #352, #154, .T. ) ;
#270 = DIRECTION ( 'NONE',  ( -0.000000000000000000, -1.000000000000000000, -0.000000000000000000 ) ) ;
#271 = VERTEX_POINT ( 'NONE', #342 ) ;
#272 = CARTESIAN_POINT ( 'NONE',  ( -94.46746641944130829, 8.000000000000000000, 14.45289397548019217 ) ) ;
#273 = CARTESIAN_POINT ( 'NONE',  ( 0.000000000000000000, 15.50000000000000000, -60.00000000000000000 ) ) ;
#274 = DIRECTION ( 'NONE',  ( 0.000000000000000000, 0.000000000000000000, 1.000000000000000000 ) ) ;
#275 = ORIENTED_EDGE ( 'NONE', *, *, #86, .T. ) ;
#276 = ORIENTED_EDGE ( 'NONE', *, *, #512, .F. ) ;
#277 = FACE_OUTER_BOUND ( 'NONE', #439, .T. ) ;
#278 = ORIENTED_EDGE ( 'NONE', *, *, #144, .T. ) ;
#279 = AXIS2_PLACEMENT_3D ( 'NONE', #98, #133, #473 ) ;
#280 = LINE ( 'NONE', #283, #94 ) ;
#281 = CARTESIAN_POINT ( 'NONE',  ( -76.87263897103090926, 8.000000000000000000, -60.00000000000000000 ) ) ;
#282 = DIRECTION ( 'NONE',  ( 1.000000000000000000, 0.000000000000000000, 0.000000000000000000 ) ) ;
#283 = CARTESIAN_POINT ( 'NONE',  ( -94.46746641944130829, 65.50000000000000000, -44.00000000000000711 ) ) ;
#284 = CARTESIAN_POINT ( 'NONE',  ( -94.46746641944130829, 15.50000000000000000, 14.45289397548019217 ) ) ;
#285 = AXIS2_PLACEMENT_3D ( 'NONE', #325, #2, #366 ) ;
#286 = AXIS2_PLACEMENT_3D ( 'NONE', #281, #90, #247 ) ;
#287 = ADVANCED_FACE ( 'NONE', ( #479 ), #180, .T. ) ;
#288 = DIRECTION ( 'NONE',  ( 0.000000000000000000, 1.000000000000000000, 0.000000000000000000 ) ) ;
#289 = LINE ( 'NONE', #472, #468 ) ;
#290 = DIRECTION ( 'NONE',  ( 0.000000000000000000, 0.000000000000000000, 1.000000000000000000 ) ) ;
#291 = APPLICATION_CONTEXT ( 'automotive_design' ) ;
#292 = CIRCLE ( 'NONE', #322, 3.250000000000009770 ) ;
#293 = CIRCLE ( 'NONE', #75, 3.250000000000009770 ) ;
#294 = FACE_OUTER_BOUND ( 'NONE', #397, .T. ) ;
#295 = CARTESIAN_POINT ( 'NONE',  ( -76.87263897103090926, 15.50000000000000000, -63.25000000000000000 ) ) ;
#296 = VERTEX_POINT ( 'NONE', #297 ) ;
#297 = CARTESIAN_POINT ( 'NONE',  ( -76.87263897103090926, 15.50000000000000000, -56.74999999999998579 ) ) ;
#298 = ADVANCED_FACE ( 'NONE', ( #441 ), #244, .F. ) ;
#299 = LINE ( 'NONE', #80, #134 ) ;
#300 = DIRECTION ( 'NONE',  ( 0.000000000000000000, 0.000000000000000000, -1.000000000000000000 ) ) ;
#301 = LINE ( 'NONE', #445, #252 ) ;
#302 = EDGE_LOOP ( 'NONE', ( #147, #105 ) ) ;
#303 = ORIENTED_EDGE ( 'NONE', *, *, #496, .F. ) ;
#304 = UNCERTAINTY_MEASURE_WITH_UNIT (LENGTH_MEASURE( 1.000000000000000082E-05 ), #132, 'distance_accuracy_value', 'NONE');
#305 = ADVANCED_FACE ( 'NONE', ( #43, #163, #4, #427 ), #51, .F. ) ;
#306 = MANIFOLD_SOLID_BREP ( 'Бобышка-Вытянуть7', #507 ) ;
#307 = DIRECTION ( 'NONE',  ( 1.000000000000000000, 0.000000000000000000, -0.000000000000000000 ) ) ;
#308 = FACE_OUTER_BOUND ( 'NONE', #498, .T. ) ;
#309 = ORIENTED_EDGE ( 'NONE', *, *, #19, .F. ) ;
#310 = VERTEX_POINT ( 'NONE', #510 ) ;
#311 = CARTESIAN_POINT ( 'NONE',  ( -94.46746641944130829, 15.50000000000000000, -44.00000000000000711 ) ) ;
#312 = CARTESIAN_POINT ( 'NONE',  ( -94.46746641944130829, 8.000000000000000000, 14.45289397548019217 ) ) ;
#313 = DIRECTION ( 'NONE',  ( 0.000000000000000000, 1.000000000000000000, 0.000000000000000000 ) ) ;
#314 = ORIENTED_EDGE ( 'NONE', *, *, #54, .F. ) ;
#315 = ORIENTED_EDGE ( 'NONE', *, *, #496, .T. ) ;
#316 = CARTESIAN_POINT ( 'NONE',  ( -94.46746641944130829, 15.50000000000000000, -75.54710602451980606 ) ) ;
#317 = PLANE ( 'NONE',  #24 ) ;
#318 = FACE_OUTER_BOUND ( 'NONE', #484, .T. ) ;
#319 = EDGE_CURVE ( 'NONE', #310, #242, #293, .T. ) ;
#320 = FACE_BOUND ( 'NONE', #156, .T. ) ;
#321 = CARTESIAN_POINT ( 'NONE',  ( -94.46746641944130829, 65.50000000000000000, -44.00000000000000711 ) ) ;
#322 = AXIS2_PLACEMENT_3D ( 'NONE', #456, #187, #260 ) ;
#323 = VECTOR ( 'NONE', #257, 1000.000000000000000 ) ;
#324 = ORIENTED_EDGE ( 'NONE', *, *, #63, .F. ) ;
#325 = CARTESIAN_POINT ( 'NONE',  ( 0.000000000000000000, 8.000000000000000000, -60.00000000000000000 ) ) ;
#326 = DIRECTION ( 'NONE',  ( -0.000000000000000000, -1.000000000000000000, -0.000000000000000000 ) ) ;
#327 = CARTESIAN_POINT ( 'NONE',  ( 76.87263897103090926, 15.50000000000000000, -63.25000000000000000 ) ) ;
#328 = EDGE_CURVE ( 'NONE', #193, #183, #384, .T. ) ;
#329 = CARTESIAN_POINT ( 'NONE',  ( 76.87263897103090926, 8.000000000000000000, -60.00000000000000000 ) ) ;
#330 = AXIS2_PLACEMENT_3D ( 'NONE', #234, #36, #364 ) ;
#331 = ADVANCED_FACE ( 'NONE', ( #294 ), #255, .F. ) ;
#332 = CARTESIAN_POINT ( 'NONE',  ( -94.46746641944130829, 15.50000000000000000, -75.54710602451980606 ) ) ;
#333 = DIRECTION ( 'NONE',  ( -0.000000000000000000, -1.000000000000000000, -0.000000000000000000 ) ) ;
#334 = CIRCLE ( 'NONE', #11, 3.250000000000009770 ) ;
#335 = AXIS2_PLACEMENT_3D ( 'NONE', #60, #386, #13 ) ;
#336 = CARTESIAN_POINT ( 'NONE',  ( -94.46746641944130829, 65.50000000000000000, -44.00000000000000711 ) ) ;
#337 = CARTESIAN_POINT ( 'NONE',  ( 0.000000000000000000, 65.50000000000000000, 0.000000000000000000 ) ) ;
#338 = LINE ( 'NONE', #295, #49 ) ;
#339 = VERTEX_POINT ( 'NONE', #511 ) ;
#340 = ORIENTED_EDGE ( 'NONE', *, *, #19, .T. ) ;
#341 = ADVANCED_FACE ( 'NONE', ( #433 ), #434, .F. ) ;
#342 = CARTESIAN_POINT ( 'NONE',  ( -76.87263897103090926, 15.50000000000000000, -63.25000000000000000 ) ) ;
#343 =( NAMED_UNIT ( * ) SI_UNIT ( $, .STERADIAN. ) SOLID_ANGLE_UNIT ( ) );
#344 = EDGE_LOOP ( 'NONE', ( #324, #138, #192, #365 ) ) ;
#345 = DIRECTION ( 'NONE',  ( -0.000000000000000000, -1.000000000000000000, -0.000000000000000000 ) ) ;
#346 = VERTEX_POINT ( 'NONE', #97 ) ;
#347 = CIRCLE ( 'NONE', #189, 3.250000000000002665 ) ;
#348 = ORIENTED_EDGE ( 'NONE', *, *, #33, .T. ) ;
#349 = AXIS2_PLACEMENT_3D ( 'NONE', #353, #231, #403 ) ;
#350 = DIRECTION ( 'NONE',  ( -1.000000000000000000, -0.000000000000000000, -0.000000000000000000 ) ) ;
#351 = VERTEX_POINT ( 'NONE', #428 ) ;
#352 = VERTEX_POINT ( 'NONE', #103 ) ;
#353 = CARTESIAN_POINT ( 'NONE',  ( -94.46746641944130829, 15.50000000000000000, -75.54710602451980606 ) ) ;
#354 = DIRECTION ( 'NONE',  ( -1.000000000000000000, -0.000000000000000000, -0.000000000000000000 ) ) ;
#355 = ORIENTED_EDGE ( 'NONE', *, *, #269, .F. ) ;
#356 = DIRECTION ( 'NONE',  ( 0.000000000000000000, 1.000000000000000000, 0.000000000000000000 ) ) ;
#357 = DIRECTION ( 'NONE',  ( -0.000000000000000000, -1.000000000000000000, -0.000000000000000000 ) ) ;
#358 = ORIENTED_EDGE ( 'NONE', *, *, #411, .T. ) ;
#359 = DIRECTION ( 'NONE',  ( 0.000000000000000000, 1.000000000000000000, 0.000000000000000000 ) ) ;
#360 = ORIENTED_EDGE ( 'NONE', *, *, #480, .F. ) ;
#361 = ADVANCED_BREP_SHAPE_REPRESENTATION ( '\X2\041e0441043d043004410442043a0430\X0\ \X2\0434043b044f\X0\ \X2\0441043204300440043a0438\X0\ 2', ( #306, #46 ), #447 ) ;
#362 = ADVANCED_FACE ( 'NONE', ( #215 ), #7, .F. ) ;
#363 = DIRECTION ( 'NONE',  ( 0.000000000000000000, 0.000000000000000000, 1.000000000000000000 ) ) ;
#364 = DIRECTION ( 'NONE',  ( 0.000000000000000000, 0.000000000000000000, -1.000000000000000000 ) ) ;
#365 = ORIENTED_EDGE ( 'NONE', *, *, #95, .F. ) ;
#366 = DIRECTION ( 'NONE',  ( 0.000000000000000000, 0.000000000000000000, 1.000000000000000000 ) ) ;
#367 = ORIENTED_EDGE ( 'NONE', *, *, #96, .F. ) ;
#368 = VERTEX_POINT ( 'NONE', #216 ) ;
#369 = CARTESIAN_POINT ( 'NONE',  ( -94.46746641944130829, 15.50000000000000000, -75.54710602451980606 ) ) ;
#370 = VECTOR ( 'NONE', #354, 1000.000000000000000 ) ;
#371 = AXIS2_PLACEMENT_3D ( 'NONE', #77, #356, #491 ) ;
#372 = ORIENTED_EDGE ( 'NONE', *, *, #429, .T. ) ;
#373 = DIRECTION ( 'NONE',  ( 0.000000000000000000, 1.000000000000000000, 0.000000000000000000 ) ) ;
#374 = EDGE_CURVE ( 'NONE', #527, #188, #58, .T. ) ;
#375 = CARTESIAN_POINT ( 'NONE',  ( 0.000000000000000000, 0.000000000000000000, 0.000000000000000000 ) ) ;
#376 = UNCERTAINTY_MEASURE_WITH_UNIT (LENGTH_MEASURE( 1.000000000000000082E-05 ), #142, 'distance_accuracy_value', 'NONE');
#377 = EDGE_CURVE ( 'NONE', #45, #346, #16, .T. ) ;
#378 = CARTESIAN_POINT ( 'NONE',  ( 0.000000000000000000, 8.000000000000000000, 0.000000000000000000 ) ) ;
#379 = LINE ( 'NONE', #56, #249 ) ;
#380 = PRODUCT_DEFINITION_CONTEXT ( 'detailed design', #291, 'design' ) ;
#381 = CARTESIAN_POINT ( 'NONE',  ( -94.46746641944130829, 65.50000000000000000, -50.00000000000000000 ) ) ;
#382 = CARTESIAN_POINT ( 'NONE',  ( -94.46746641944130829, 15.50000000000000000, -75.54710602451980606 ) ) ;
#383 = CIRCLE ( 'NONE', #286, 3.250000000000009770 ) ;
#384 = LINE ( 'NONE', #475, #210 ) ;
#385 = VECTOR ( 'NONE', #204, 1000.000000000000000 ) ;
#386 = DIRECTION ( 'NONE',  ( -0.000000000000000000, -1.000000000000000000, -0.000000000000000000 ) ) ;
#387 = ORIENTED_EDGE ( 'NONE', *, *, #86, .F. ) ;
#388 = PRODUCT_DEFINITION ( 'UNKNOWN', '', #165, #380 ) ;
#389 = DIRECTION ( 'NONE',  ( 0.000000000000000000, 1.000000000000000000, 0.000000000000000000 ) ) ;
#390 = CARTESIAN_POINT ( 'NONE',  ( 0.000000000000000000, 15.50000000000000000, -60.00000000000000000 ) ) ;
#391 = CARTESIAN_POINT ( 'NONE',  ( -94.46746641944130829, 8.000000000000000000, -75.54710602451980606 ) ) ;
#392 = ORIENTED_EDGE ( 'NONE', *, *, #28, .T. ) ;
#393 = VERTEX_POINT ( 'NONE', #12 ) ;
#394 = PRODUCT_DEFINITION_SHAPE ( 'NONE', 'NONE',  #388 ) ;
#395 = LINE ( 'NONE', #238, #1 ) ;
#396 = AXIS2_PLACEMENT_3D ( 'NONE', #523, #195, #263 ) ;
#397 = EDGE_LOOP ( 'NONE', ( #401, #153, #367, #170 ) ) ;
#398 = CARTESIAN_POINT ( 'NONE',  ( -76.87263897103090926, 8.000000000000000000, -60.00000000000000000 ) ) ;
#399 = MECHANICAL_DESIGN_GEOMETRIC_PRESENTATION_REPRESENTATION (  '', ( #476 ), #3 ) ;
#400 = DIRECTION ( 'NONE',  ( -0.000000000000000000, -0.000000000000000000, -1.000000000000000000 ) ) ;
#401 = ORIENTED_EDGE ( 'NONE', *, *, #492, .T. ) ;
#402 = ORIENTED_EDGE ( 'NONE', *, *, #218, .T. ) ;
#403 = DIRECTION ( 'NONE',  ( 1.000000000000000000, 0.000000000000000000, -0.000000000000000000 ) ) ;
#404 = DIRECTION ( 'NONE',  ( -1.000000000000000000, 0.000000000000000000, 0.000000000000000000 ) ) ;
#405 = DIRECTION ( 'NONE',  ( 0.000000000000000000, 0.000000000000000000, -1.000000000000000000 ) ) ;
#406 = EDGE_LOOP ( 'NONE', ( #18, #182, #67, #538 ) ) ;
#407 = DIRECTION ( 'NONE',  ( -1.000000000000000000, -0.000000000000000000, -0.000000000000000000 ) ) ;
#408 = LINE ( 'NONE', #228, #513 ) ;
#409 = CARTESIAN_POINT ( 'NONE',  ( 0.000000000000000000, 15.50000000000000000, -60.00000000000000000 ) ) ;
#410 = DIRECTION ( 'NONE',  ( -0.000000000000000000, -1.000000000000000000, -0.000000000000000000 ) ) ;
#411 = EDGE_CURVE ( 'NONE', #527, #193, #178, .T. ) ;
#412 = EDGE_LOOP ( 'NONE', ( #73, #463, #89, #186 ) ) ;
#413 = FACE_OUTER_BOUND ( 'NONE', #201, .T. ) ;
#414 = DIRECTION ( 'NONE',  ( 0.000000000000000000, 0.000000000000000000, -1.000000000000000000 ) ) ;
#415 = DIRECTION ( 'NONE',  ( -0.000000000000000000, -1.000000000000000000, -0.000000000000000000 ) ) ;
#416 = LINE ( 'NONE', #250, #536 ) ;
#417 = VECTOR ( 'NONE', #233, 1000.000000000000000 ) ;
#418 = CARTESIAN_POINT ( 'NONE',  ( 90.27822178886746940, 65.50000000000000000, -44.00000000000000711 ) ) ;
#419 = VERTEX_POINT ( 'NONE', #336 ) ;
#420 = LINE ( 'NONE', #327, #173 ) ;
#421 = CIRCLE ( 'NONE', #177, 3.250000000000002665 ) ;
#422 = ADVANCED_FACE ( 'NONE', ( #102 ), #256, .F. ) ;
#423 = ORIENTED_EDGE ( 'NONE', *, *, #119, .F. ) ;
#424 = FACE_OUTER_BOUND ( 'NONE', #161, .T. ) ;
#425 = DIRECTION ( 'NONE',  ( -0.000000000000000000, -1.000000000000000000, -0.000000000000000000 ) ) ;
#426 = EDGE_CURVE ( 'NONE', #271, #393, #338, .T. ) ;
#427 = FACE_BOUND ( 'NONE', #518, .T. ) ;
#428 = CARTESIAN_POINT ( 'NONE',  ( 76.87263897103090926, 8.000000000000000000, -63.25000000000000000 ) ) ;
#429 = EDGE_CURVE ( 'NONE', #339, #193, #301, .T. ) ;
#430 = VECTOR ( 'NONE', #108, 1000.000000000000000 ) ;
#431 = DIRECTION ( 'NONE',  ( 0.000000000000000000, 0.000000000000000000, -1.000000000000000000 ) ) ;
#432 = AXIS2_PLACEMENT_3D ( 'NONE', #316, #282, #414 ) ;
#433 = FACE_OUTER_BOUND ( 'NONE', #524, .T. ) ;
#434 = PLANE ( 'NONE',  #279 ) ;
#435 = EDGE_CURVE ( 'NONE', #222, #118, #20, .T. ) ;
#436 = AXIS2_PLACEMENT_3D ( 'NONE', #239, #415, #405 ) ;
#437 = PRODUCT ( '\X2\041e0441043d043004410442043a0430\X0\ \X2\0434043b044f\X0\ \X2\0441043204300440043a0438\X0\ 2', '\X2\041e0441043d043004410442043a0430\X0\ \X2\0434043b044f\X0\ \X2\0441043204300440043a0438\X0\ 2', '', ( #504 ) ) ;
#438 = FACE_OUTER_BOUND ( 'NONE', #344, .T. ) ;
#439 = EDGE_LOOP ( 'NONE', ( #236, #208, #489, #453 ) ) ;
#440 = EDGE_CURVE ( 'NONE', #92, #419, #112, .T. ) ;
#441 = FACE_OUTER_BOUND ( 'NONE', #106, .T. ) ;
#442 = AXIS2_PLACEMENT_3D ( 'NONE', #458, #373, #464 ) ;
#443 = CARTESIAN_POINT ( 'NONE',  ( -94.46746641944130829, 15.50000000000000000, -50.00000000000000000 ) ) ;
#444 = ORIENTED_EDGE ( 'NONE', *, *, #477, .T. ) ;
#445 = CARTESIAN_POINT ( 'NONE',  ( -94.46746641944130829, 8.000000000000000000, -75.54710602451980606 ) ) ;
#446 = VERTEX_POINT ( 'NONE', #493 ) ;
#447 =( GEOMETRIC_REPRESENTATION_CONTEXT ( 3 ) GLOBAL_UNCERTAINTY_ASSIGNED_CONTEXT ( ( #376 ) ) GLOBAL_UNIT_ASSIGNED_CONTEXT ( ( #142, #30, #343 ) ) REPRESENTATION_CONTEXT ( 'NONE', 'WORKASPACE' ) );
#448 = DIRECTION ( 'NONE',  ( 0.000000000000000000, 0.000000000000000000, 1.000000000000000000 ) ) ;
#449 = AXIS2_PLACEMENT_3D ( 'NONE', #265, #526, #307 ) ;
#450 = ORIENTED_EDGE ( 'NONE', *, *, #243, .T. ) ;
#451 = ORIENTED_EDGE ( 'NONE', *, *, #411, .F. ) ;
#452 = FACE_OUTER_BOUND ( 'NONE', #406, .T. ) ;
#453 = ORIENTED_EDGE ( 'NONE', *, *, #374, .T. ) ;
#454 = ORIENTED_EDGE ( 'NONE', *, *, #251, .F. ) ;
#455 = EDGE_CURVE ( 'NONE', #346, #17, #395, .T. ) ;
#456 = CARTESIAN_POINT ( 'NONE',  ( 76.87263897103090926, 15.50000000000000000, -60.00000000000000000 ) ) ;
#457 = VERTEX_POINT ( 'NONE', #487 ) ;
#458 = CARTESIAN_POINT ( 'NONE',  ( -76.87263897103090926, 15.50000000000000000, -60.00000000000000000 ) ) ;
#459 = SHAPE_DEFINITION_REPRESENTATION ( #394, #361 ) ;
#460 = CYLINDRICAL_SURFACE ( 'NONE', #436, 3.250000000000002665 ) ;
#461 = AXIS2_PLACEMENT_3D ( 'NONE', #398, #29, #268 ) ;
#462 = ORIENTED_EDGE ( 'NONE', *, *, #214, .F. ) ;
#463 = ORIENTED_EDGE ( 'NONE', *, *, #225, .T. ) ;
#464 = DIRECTION ( 'NONE',  ( 0.000000000000000000, 0.000000000000000000, 1.000000000000000000 ) ) ;
#465 = AXIS2_PLACEMENT_3D ( 'NONE', #185, #345, #300 ) ;
#466 = ORIENTED_EDGE ( 'NONE', *, *, #144, .F. ) ;
#467 = DIRECTION ( 'NONE',  ( 0.000000000000000000, 0.000000000000000000, 1.000000000000000000 ) ) ;
#468 = VECTOR ( 'NONE', #52, 1000.000000000000000 ) ;
#469 = DIRECTION ( 'NONE',  ( 1.000000000000000000, 0.000000000000000000, 0.000000000000000000 ) ) ;
#470 = EDGE_CURVE ( 'NONE', #242, #310, #292, .T. ) ;
#471 = SURFACE_SIDE_STYLE ('',( #174 ) ) ;
#472 = CARTESIAN_POINT ( 'NONE',  ( 90.27822178886746940, 8.000000000000000000, -75.54710602451980606 ) ) ;
#473 = DIRECTION ( 'NONE',  ( -1.000000000000000000, 0.000000000000000000, -0.000000000000000000 ) ) ;
#474 = VECTOR ( 'NONE', #333, 1000.000000000000000 ) ;
#475 = CARTESIAN_POINT ( 'NONE',  ( -94.46746641944130829, 8.000000000000000000, -75.54710602451980606 ) ) ;
#476 = STYLED_ITEM ( 'NONE', ( #62 ), #306 ) ;
#477 = EDGE_CURVE ( 'NONE', #296, #271, #99, .T. ) ;
#478 = DIRECTION ( 'NONE',  ( -0.000000000000000000, -1.000000000000000000, -0.000000000000000000 ) ) ;
#479 = FACE_OUTER_BOUND ( 'NONE', #152, .T. ) ;
#480 = EDGE_CURVE ( 'NONE', #79, #122, #115, .T. ) ;
#481 = LINE ( 'NONE', #443, #370 ) ;
#482 = ORIENTED_EDGE ( 'NONE', *, *, #54, .T. ) ;
#483 = DIRECTION ( 'NONE',  ( 1.000000000000000000, 0.000000000000000000, 0.000000000000000000 ) ) ;
#484 = EDGE_LOOP ( 'NONE', ( #462, #402, #61, #423 ) ) ;
#485 = LINE ( 'NONE', #26, #501 ) ;
#486 = ORIENTED_EDGE ( 'NONE', *, *, #179, .F. ) ;
#487 = CARTESIAN_POINT ( 'NONE',  ( -76.87263897103090926, 8.000000000000000000, -56.74999999999998579 ) ) ;
#488 = CARTESIAN_POINT ( 'NONE',  ( 0.000000000000000000, 15.50000000000000000, -63.25000000000000000 ) ) ;
#489 = ORIENTED_EDGE ( 'NONE', *, *, #107, .T. ) ;
#490 = ORIENTED_EDGE ( 'NONE', *, *, #127, .T. ) ;
#491 = DIRECTION ( 'NONE',  ( 0.000000000000000000, 0.000000000000000000, 1.000000000000000000 ) ) ;
#492 = EDGE_CURVE ( 'NONE', #222, #446, #347, .T. ) ;
#493 = CARTESIAN_POINT ( 'NONE',  ( 3.980102097228903162E-16, 15.50000000000000000, -56.74999999999999289 ) ) ;
#494 = EDGE_LOOP ( 'NONE', ( #31, #23 ) ) ;
#495 = LINE ( 'NONE', #87, #129 ) ;
#496 = EDGE_CURVE ( 'NONE', #368, #45, #299, .T. ) ;
#497 = ORIENTED_EDGE ( 'NONE', *, *, #243, .F. ) ;
#498 = EDGE_LOOP ( 'NONE', ( #184, #516, #85, #264, #303, #340, #466, #392 ) ) ;
#499 = DIRECTION ( 'NONE',  ( 0.000000000000000000, 0.000000000000000000, 1.000000000000000000 ) ) ;
#500 = PLANE ( 'NONE',  #151 ) ;
#501 = VECTOR ( 'NONE', #223, 1000.000000000000000 ) ;
#502 = AXIS2_PLACEMENT_3D ( 'NONE', #337, #389, #140 ) ;
#503 = DIRECTION ( 'NONE',  ( 0.000000000000000000, 1.000000000000000000, 0.000000000000000000 ) ) ;
#504 = PRODUCT_CONTEXT ( 'NONE', #74, 'mechanical' ) ;
#505 = LINE ( 'NONE', #128, #47 ) ;
#506 = DIRECTION ( 'NONE',  ( -0.000000000000000000, -1.000000000000000000, -0.000000000000000000 ) ) ;
#507 = CLOSED_SHELL ( 'NONE', ( #362, #331, #422, #50, #131, #305, #298, #341, #235, #261, #42, #10, #203, #159, #508, #287 ) ) ;
#508 = ADVANCED_FACE ( 'NONE', ( #452 ), #78, .F. ) ;
#509 = DIRECTION ( 'NONE',  ( 0.000000000000000000, 0.000000000000000000, -1.000000000000000000 ) ) ;
#510 = CARTESIAN_POINT ( 'NONE',  ( 76.87263897103090926, 15.50000000000000000, -63.25000000000000000 ) ) ;
#511 = CARTESIAN_POINT ( 'NONE',  ( 90.27822178886746940, 8.000000000000000000, -75.54710602451980606 ) ) ;
#512 = EDGE_CURVE ( 'NONE', #183, #69, #520, .T. ) ;
#513 = VECTOR ( 'NONE', #232, 1000.000000000000000 ) ;
#514 = FILL_AREA_STYLE ('',( #253 ) ) ;
#515 =( NAMED_UNIT ( * ) SI_UNIT ( $, .STERADIAN. ) SOLID_ANGLE_UNIT ( ) );
#516 = ORIENTED_EDGE ( 'NONE', *, *, #535, .F. ) ;
#517 = DIRECTION ( 'NONE',  ( -0.000000000000000000, -1.000000000000000000, -0.000000000000000000 ) ) ;
#518 = EDGE_LOOP ( 'NONE', ( #111, #40 ) ) ;
#519 = EDGE_CURVE ( 'NONE', #346, #188, #481, .T. ) ;
#520 = LINE ( 'NONE', #312, #430 ) ;
#521 = EDGE_LOOP ( 'NONE', ( #197, #109, #454, #486 ) ) ;
#522 = AXIS2_PLACEMENT_3D ( 'NONE', #390, #130, #509 ) ;
#523 = CARTESIAN_POINT ( 'NONE',  ( -76.87263897103090926, 15.50000000000000000, -60.00000000000000000 ) ) ;
#524 = EDGE_LOOP ( 'NONE', ( #15, #113, #360, #275 ) ) ;
#525 = ORIENTED_EDGE ( 'NONE', *, *, #172, .T. ) ;
#526 = DIRECTION ( 'NONE',  ( 0.000000000000000000, 0.000000000000000000, 1.000000000000000000 ) ) ;
#527 = VERTEX_POINT ( 'NONE', #149 ) ;
#528 = ORIENTED_EDGE ( 'NONE', *, *, #137, .T. ) ;
#529 = CIRCLE ( 'NONE', #285, 3.250000000000002665 ) ;
#530 = CARTESIAN_POINT ( 'NONE',  ( 76.87263897103090926, 8.000000000000000000, -56.74999999999998579 ) ) ;
#531 = EDGE_CURVE ( 'NONE', #45, #92, #408, .T. ) ;
#532 = CARTESIAN_POINT ( 'NONE',  ( -94.46746641944130829, 65.50000000000000000, -50.00000000000000000 ) ) ;
#533 = CARTESIAN_POINT ( 'NONE',  ( 3.980102097228902176E-16, 15.50000000000000000, -56.74999999999999289 ) ) ;
#534 = ORIENTED_EDGE ( 'NONE', *, *, #429, .F. ) ;
#535 = EDGE_CURVE ( 'NONE', #17, #339, #485, .T. ) ;
#536 = VECTOR ( 'NONE', #540, 1000.000000000000000 ) ;
#537 = DIRECTION ( 'NONE',  ( -0.000000000000000000, -1.000000000000000000, -0.000000000000000000 ) ) ;
#538 = ORIENTED_EDGE ( 'NONE', *, *, #377, .T. ) ;
#539 = VERTEX_POINT ( 'NONE', #198 ) ;
#540 = DIRECTION ( 'NONE',  ( -0.000000000000000000, -0.000000000000000000, -1.000000000000000000 ) ) ;
#541 = LINE ( 'NONE', #418, #385 ) ;
ENDSEC;
END-ISO-10303-21;
